<svg width="975" height="853" viewBox="0 0 975 853" fill="none" xmlns="http://www.w3.org/2000/svg">
<g filter="url(#filter0_d_506_83)">
<rect x="555" y="483" width="400" height="100" rx="50" fill="white"/>
<path d="M905 573C910.253 573 915.454 571.965 920.307 569.955C925.16 567.945 929.57 564.999 933.284 561.284C936.999 557.57 939.945 553.16 941.955 548.307C943.965 543.454 945 538.253 945 533C945 527.747 943.965 522.546 941.955 517.693C939.945 512.84 936.999 508.43 933.284 504.716C929.57 501.001 925.16 498.055 920.307 496.045C915.454 494.035 910.253 493 905 493L905 533V573Z" fill="url(#paint0_linear_506_83)"/>
<path d="M714.5 518.74C715.153 519.06 715.667 519.507 716.04 520.08C716.413 520.653 716.6 521.307 716.6 522.04C716.6 523.16 716.207 524.1 715.42 524.86C714.633 525.62 713.673 526 712.54 526H706.5V512H712.1C713.207 512 714.133 512.367 714.88 513.1C715.64 513.833 716.02 514.74 716.02 515.82C716.02 517.073 715.513 518.047 714.5 518.74ZM712.1 513.74H708.36V518.02H712.1C712.687 518.02 713.18 517.813 713.58 517.4C713.98 516.987 714.18 516.48 714.18 515.88C714.18 515.293 713.973 514.793 713.56 514.38C713.16 513.953 712.673 513.74 712.1 513.74ZM708.36 524.26H712.54C713.167 524.26 713.693 524.04 714.12 523.6C714.547 523.16 714.76 522.62 714.76 521.98C714.76 521.353 714.54 520.82 714.1 520.38C713.687 519.94 713.167 519.72 712.54 519.72H708.36V524.26ZM720.365 519.6H722.845C723.845 519.6 724.671 519.9 725.325 520.5C725.991 521.087 726.325 521.853 726.325 522.8C726.325 523.747 725.991 524.52 725.325 525.12C724.658 525.707 723.831 526 722.845 526H718.625V516H720.365V519.6ZM727.625 526V516H729.365V526H727.625ZM720.365 524.38H722.845C723.351 524.38 723.771 524.233 724.105 523.94C724.438 523.647 724.605 523.267 724.605 522.8C724.605 522.333 724.431 521.953 724.085 521.66C723.751 521.353 723.338 521.2 722.845 521.2H720.365V524.38ZM732.023 516H740.683V526H738.943V517.66H733.763V526H732.023V516ZM751.772 524.74C750.758 525.753 749.512 526.26 748.032 526.26C746.552 526.26 745.305 525.753 744.292 524.74C743.278 523.727 742.772 522.48 742.772 521C742.772 519.52 743.278 518.273 744.292 517.26C745.305 516.247 746.552 515.74 748.032 515.74C749.512 515.74 750.758 516.247 751.772 517.26C752.798 518.287 753.312 519.533 753.312 521C753.312 522.467 752.798 523.713 751.772 524.74ZM748.032 524.56C749.032 524.56 749.872 524.22 750.552 523.54C751.232 522.86 751.572 522.013 751.572 521C751.572 519.987 751.232 519.14 750.552 518.46C749.872 517.78 749.032 517.44 748.032 517.44C747.045 517.44 746.212 517.78 745.532 518.46C744.852 519.14 744.512 519.987 744.512 521C744.512 522.013 744.852 522.86 745.532 523.54C746.212 524.22 747.045 524.56 748.032 524.56ZM755.931 516H763.351V526H761.611V517.68H757.671V521.76C757.671 523.36 757.351 524.5 756.711 525.18C756.071 525.847 755.131 526.12 753.891 526V524.36C754.585 524.453 755.098 524.3 755.431 523.9C755.765 523.487 755.931 522.76 755.931 521.72V516ZM772.908 520.16V516H774.648V526H772.908V521.82H767.728V526H765.988V516H767.728V520.16H772.908ZM779.017 523.02L784.557 516H785.957V526H784.237V518.98L778.697 526H777.297V516H779.017V523.02ZM789.525 516H796.945V526H795.205V517.68H791.265V521.76C791.265 523.36 790.945 524.5 790.305 525.18C789.665 525.847 788.725 526.12 787.485 526V524.36C788.178 524.453 788.692 524.3 789.025 523.9C789.358 523.487 789.525 522.76 789.525 521.72V516ZM801.302 523.02L806.842 516H808.242V526H806.522V518.98L800.982 526H799.582V516H801.302V523.02ZM820.43 526.26C818.95 526.26 817.73 525.773 816.77 524.8C815.81 523.813 815.33 522.56 815.33 521.04C815.33 519.32 815.577 518.007 816.07 517.1C816.577 516.18 817.604 515.347 819.15 514.6C819.23 514.56 819.324 514.513 819.43 514.46C819.55 514.407 819.69 514.347 819.85 514.28C820.024 514.2 820.17 514.133 820.29 514.08L821.37 513.6C822.437 513.067 823.004 512.427 823.07 511.68L824.47 512.48C824.377 512.947 824.224 513.32 824.01 513.6C823.997 513.627 823.957 513.687 823.89 513.78C823.824 513.86 823.777 513.92 823.75 513.96C823.724 513.987 823.677 514.033 823.61 514.1C823.557 514.153 823.497 514.207 823.43 514.26C823.377 514.313 823.304 514.367 823.21 514.42C822.717 514.727 822.364 514.927 822.15 515.02C822.07 515.06 821.984 515.1 821.89 515.14C821.81 515.18 821.744 515.213 821.69 515.24C821.637 515.267 821.597 515.287 821.57 515.3L820.91 515.58L820.27 515.84C819.377 516.227 818.717 516.62 818.29 517.02C817.864 517.42 817.557 517.927 817.37 518.54C817.784 518.033 818.304 517.647 818.93 517.38C819.57 517.113 820.224 516.98 820.89 516.98C822.157 516.98 823.217 517.407 824.07 518.26C824.95 519.127 825.39 520.227 825.39 521.56C825.39 522.92 824.924 524.047 823.99 524.94C823.044 525.82 821.857 526.26 820.43 526.26ZM823.65 521.56C823.65 520.667 823.357 519.94 822.77 519.38C822.197 518.807 821.437 518.52 820.49 518.52C819.65 518.52 818.877 518.793 818.17 519.34C817.49 519.887 817.15 520.593 817.15 521.46C817.15 522.367 817.464 523.113 818.09 523.7C818.717 524.287 819.497 524.58 820.43 524.58C821.377 524.58 822.144 524.293 822.73 523.72C823.344 523.147 823.65 522.427 823.65 521.56ZM835.678 524.74C834.665 525.753 833.418 526.26 831.938 526.26C830.458 526.26 829.211 525.753 828.198 524.74C827.185 523.727 826.678 522.48 826.678 521C826.678 519.52 827.185 518.273 828.198 517.26C829.211 516.247 830.458 515.74 831.938 515.74C833.418 515.74 834.665 516.247 835.678 517.26C836.705 518.287 837.218 519.533 837.218 521C837.218 522.467 836.705 523.713 835.678 524.74ZM831.938 524.56C832.938 524.56 833.778 524.22 834.458 523.54C835.138 522.86 835.478 522.013 835.478 521C835.478 519.987 835.138 519.14 834.458 518.46C833.778 517.78 832.938 517.44 831.938 517.44C830.951 517.44 830.118 517.78 829.438 518.46C828.758 519.14 828.418 519.987 828.418 521C828.418 522.013 828.758 522.86 829.438 523.54C830.118 524.22 830.951 524.56 831.938 524.56ZM839.838 516H847.258V526H845.518V517.68H841.578V521.76C841.578 523.36 841.258 524.5 840.618 525.18C839.978 525.847 839.038 526.12 837.798 526V524.36C838.491 524.453 839.004 524.3 839.338 523.9C839.671 523.487 839.838 522.76 839.838 521.72V516ZM859.494 521.8H851.114C851.288 522.68 851.694 523.373 852.334 523.88C852.974 524.373 853.774 524.62 854.734 524.62C856.054 524.62 857.014 524.133 857.614 523.16L859.094 524C858.108 525.507 856.641 526.26 854.694 526.26C853.121 526.26 851.828 525.767 850.814 524.78C849.828 523.767 849.334 522.507 849.334 521C849.334 519.48 849.821 518.227 850.794 517.24C851.768 516.24 853.028 515.74 854.574 515.74C856.041 515.74 857.234 516.26 858.154 517.3C859.088 518.313 859.554 519.553 859.554 521.02C859.554 521.273 859.534 521.533 859.494 521.8ZM854.574 517.38C853.654 517.38 852.881 517.64 852.254 518.16C851.641 518.68 851.261 519.387 851.114 520.28H857.794C857.648 519.36 857.281 518.647 856.694 518.14C856.108 517.633 855.401 517.38 854.574 517.38ZM871.135 521.8H862.755C862.928 522.68 863.335 523.373 863.975 523.88C864.615 524.373 865.415 524.62 866.375 524.62C867.695 524.62 868.655 524.133 869.255 523.16L870.735 524C869.748 525.507 868.282 526.26 866.335 526.26C864.762 526.26 863.468 525.767 862.455 524.78C861.468 523.767 860.975 522.507 860.975 521C860.975 519.48 861.462 518.227 862.435 517.24C863.408 516.24 864.668 515.74 866.215 515.74C867.682 515.74 868.875 516.26 869.795 517.3C870.728 518.313 871.195 519.553 871.195 521.02C871.195 521.273 871.175 521.533 871.135 521.8ZM866.215 517.38C865.295 517.38 864.522 517.64 863.895 518.16C863.282 518.68 862.902 519.387 862.755 520.28H869.435C869.288 519.36 868.922 518.647 868.335 518.14C867.748 517.633 867.042 517.38 866.215 517.38ZM710.38 540.84C711.78 540.84 712.933 541.28 713.84 542.16C714.747 543.027 715.2 544.153 715.2 545.54C715.2 546.927 714.747 548.06 713.84 548.94C712.933 549.82 711.78 550.26 710.38 550.26C708.953 550.26 707.793 549.82 706.9 548.94C706.007 548.06 705.56 546.927 705.56 545.54C705.56 544.447 705.84 543.513 706.4 542.74L710.9 536H713.02L709.72 540.88C710.12 540.853 710.34 540.84 710.38 540.84ZM710.38 542.62C709.487 542.62 708.767 542.887 708.22 543.42C707.673 543.953 707.4 544.66 707.4 545.54C707.4 546.42 707.673 547.133 708.22 547.68C708.78 548.213 709.5 548.48 710.38 548.48C711.26 548.48 711.973 548.213 712.52 547.68C713.08 547.133 713.36 546.42 713.36 545.54C713.36 544.66 713.08 543.953 712.52 543.42C711.973 542.887 711.26 542.62 710.38 542.62ZM726.042 548.28C725.108 549.6 723.782 550.26 722.062 550.26C720.342 550.26 719.015 549.6 718.082 548.28C717.135 546.947 716.662 545.187 716.662 543C716.662 540.813 717.135 539.053 718.082 537.72C719.015 536.4 720.342 535.74 722.062 535.74C723.782 535.74 725.108 536.4 726.042 537.72C726.988 539.053 727.462 540.813 727.462 543C727.462 545.187 726.988 546.947 726.042 548.28ZM718.522 543C718.522 544.733 718.828 546.073 719.442 547.02C720.055 547.967 720.928 548.44 722.062 548.44C723.195 548.44 724.068 547.967 724.682 547.02C725.308 546.073 725.622 544.733 725.622 543C725.622 541.267 725.308 539.927 724.682 538.98C724.068 538.02 723.195 537.54 722.062 537.54C720.928 537.54 720.055 538.013 719.442 538.96C718.828 539.907 718.522 541.253 718.522 543ZM738.639 548.28C737.706 549.6 736.379 550.26 734.659 550.26C732.939 550.26 731.613 549.6 730.679 548.28C729.733 546.947 729.259 545.187 729.259 543C729.259 540.813 729.733 539.053 730.679 537.72C731.613 536.4 732.939 535.74 734.659 535.74C736.379 535.74 737.706 536.4 738.639 537.72C739.586 539.053 740.059 540.813 740.059 543C740.059 545.187 739.586 546.947 738.639 548.28ZM731.119 543C731.119 544.733 731.426 546.073 732.039 547.02C732.653 547.967 733.526 548.44 734.659 548.44C735.793 548.44 736.666 547.967 737.279 547.02C737.906 546.073 738.219 544.733 738.219 543C738.219 541.267 737.906 539.927 737.279 538.98C736.666 538.02 735.793 537.54 734.659 537.54C733.526 537.54 732.653 538.013 732.039 538.96C731.426 539.907 731.119 541.253 731.119 543ZM747.237 542.16H750.717V543.82H747.237V547.3H745.577V543.82H742.117V542.16H745.577V538.7H747.237V542.16ZM766.615 548.74C765.602 549.753 764.355 550.26 762.875 550.26C761.395 550.26 760.149 549.753 759.135 548.74C758.122 547.727 757.615 546.48 757.615 545C757.615 543.52 758.122 542.273 759.135 541.26C760.149 540.247 761.395 539.74 762.875 539.74C764.355 539.74 765.602 540.247 766.615 541.26C767.642 542.287 768.155 543.533 768.155 545C768.155 546.467 767.642 547.713 766.615 548.74ZM762.875 548.56C763.875 548.56 764.715 548.22 765.395 547.54C766.075 546.86 766.415 546.013 766.415 545C766.415 543.987 766.075 543.14 765.395 542.46C764.715 541.78 763.875 541.44 762.875 541.44C761.889 541.44 761.055 541.78 760.375 542.46C759.695 543.14 759.355 543.987 759.355 545C759.355 546.013 759.695 546.86 760.375 547.54C761.055 548.22 761.889 548.56 762.875 548.56ZM774.747 550.26C773.267 550.26 772.047 549.773 771.087 548.8C770.127 547.813 769.647 546.56 769.647 545.04C769.647 543.32 769.893 542.007 770.387 541.1C770.893 540.18 771.92 539.347 773.467 538.6C773.547 538.56 773.64 538.513 773.747 538.46C773.867 538.407 774.007 538.347 774.167 538.28C774.34 538.2 774.487 538.133 774.607 538.08L775.687 537.6C776.753 537.067 777.32 536.427 777.387 535.68L778.787 536.48C778.693 536.947 778.54 537.32 778.327 537.6C778.313 537.627 778.273 537.687 778.207 537.78C778.14 537.86 778.093 537.92 778.067 537.96C778.04 537.987 777.993 538.033 777.927 538.1C777.873 538.153 777.813 538.207 777.747 538.26C777.693 538.313 777.62 538.367 777.527 538.42C777.033 538.727 776.68 538.927 776.467 539.02C776.387 539.06 776.3 539.1 776.207 539.14C776.127 539.18 776.06 539.213 776.007 539.24C775.953 539.267 775.913 539.287 775.887 539.3L775.227 539.58L774.587 539.84C773.693 540.227 773.033 540.62 772.607 541.02C772.18 541.42 771.873 541.927 771.687 542.54C772.1 542.033 772.62 541.647 773.247 541.38C773.887 541.113 774.54 540.98 775.207 540.98C776.473 540.98 777.533 541.407 778.387 542.26C779.267 543.127 779.707 544.227 779.707 545.56C779.707 546.92 779.24 548.047 778.307 548.94C777.36 549.82 776.173 550.26 774.747 550.26ZM777.967 545.56C777.967 544.667 777.673 543.94 777.087 543.38C776.513 542.807 775.753 542.52 774.807 542.52C773.967 542.52 773.193 542.793 772.487 543.34C771.807 543.887 771.467 544.593 771.467 545.46C771.467 546.367 771.78 547.113 772.407 547.7C773.033 548.287 773.813 548.58 774.747 548.58C775.693 548.58 776.46 548.293 777.047 547.72C777.66 547.147 777.967 546.427 777.967 545.56ZM784.364 543.6H786.844C787.83 543.6 788.657 543.9 789.324 544.5C789.99 545.1 790.324 545.867 790.324 546.8C790.324 547.733 789.99 548.5 789.324 549.1C788.657 549.7 787.83 550 786.844 550H782.624V541.68H779.844V540H784.364V543.6ZM784.364 548.38H786.844C787.35 548.38 787.77 548.233 788.104 547.94C788.437 547.647 788.604 547.267 788.604 546.8C788.604 546.333 788.43 545.953 788.084 545.66C787.75 545.353 787.337 545.2 786.844 545.2H784.364V548.38ZM801.682 545.8H793.302C793.475 546.68 793.882 547.373 794.522 547.88C795.162 548.373 795.962 548.62 796.922 548.62C798.242 548.62 799.202 548.133 799.802 547.16L801.282 548C800.295 549.507 798.828 550.26 796.882 550.26C795.308 550.26 794.015 549.767 793.002 548.78C792.015 547.767 791.522 546.507 791.522 545C791.522 543.48 792.008 542.227 792.982 541.24C793.955 540.24 795.215 539.74 796.762 539.74C798.228 539.74 799.422 540.26 800.342 541.3C801.275 542.313 801.742 543.553 801.742 545.02C801.742 545.273 801.722 545.533 801.682 545.8ZM796.762 541.38C795.842 541.38 795.068 541.64 794.442 542.16C793.828 542.68 793.448 543.387 793.302 544.28H799.982C799.835 543.36 799.468 542.647 798.882 542.14C798.295 541.633 797.588 541.38 796.762 541.38ZM807.262 544.84L812.202 550H810.042L805.482 545.26V550H803.742V540H805.482V544.42L809.802 540H812.042L807.262 544.84ZM812.7 540H821.26V541.68H817.86V550H816.12V541.68H812.7V540ZM830.834 548.74C829.821 549.753 828.574 550.26 827.094 550.26C825.614 550.26 824.368 549.753 823.354 548.74C822.341 547.727 821.834 546.48 821.834 545C821.834 543.52 822.341 542.273 823.354 541.26C824.368 540.247 825.614 539.74 827.094 539.74C828.574 539.74 829.821 540.247 830.834 541.26C831.861 542.287 832.374 543.533 832.374 545C832.374 546.467 831.861 547.713 830.834 548.74ZM827.094 548.56C828.094 548.56 828.934 548.22 829.614 547.54C830.294 546.86 830.634 546.013 830.634 545C830.634 543.987 830.294 543.14 829.614 542.46C828.934 541.78 828.094 541.44 827.094 541.44C826.108 541.44 825.274 541.78 824.594 542.46C823.914 543.14 823.574 543.987 823.574 545C823.574 546.013 823.914 546.86 824.594 547.54C825.274 548.22 826.108 548.56 827.094 548.56ZM841.085 544.86C842.112 545.287 842.625 546.06 842.625 547.18C842.625 548.033 842.345 548.72 841.785 549.24C841.225 549.747 840.439 550 839.425 550H834.425V540H839.025C840.012 540 840.779 540.247 841.325 540.74C841.885 541.233 842.165 541.893 842.165 542.72C842.165 543.68 841.805 544.393 841.085 544.86ZM838.945 541.56H836.125V544.18H838.945C839.959 544.18 840.465 543.733 840.465 542.84C840.465 541.987 839.959 541.56 838.945 541.56ZM836.125 548.42H839.325C839.832 548.42 840.219 548.3 840.485 548.06C840.765 547.82 840.905 547.48 840.905 547.04C840.905 546.627 840.765 546.307 840.485 546.08C840.219 545.84 839.832 545.72 839.325 545.72H836.125V548.42Z" fill="#1E1E1E"/>
</g>
<circle cx="225" cy="419" r="225" fill="#FCD318" fill-opacity="0.5"/>
<circle cx="225" cy="419" r="175" fill="#EFF2F6"/>
<path fill-rule="evenodd" clip-rule="evenodd" d="M230.025 145.546C226.444 145.48 222.863 145.485 219.284 145.56L219.242 143.56C222.847 143.485 226.454 143.48 230.062 143.546L230.025 145.546ZM251.469 146.784C247.902 146.437 244.332 146.161 240.759 145.954L240.875 143.958C244.473 144.165 248.07 144.444 251.663 144.793L251.469 146.784ZM208.551 145.995C204.977 146.21 201.407 146.496 197.844 146.852L197.645 144.861C201.234 144.503 204.83 144.216 208.431 143.999L208.551 145.995ZM267.452 148.815C265.682 148.537 263.911 148.276 262.138 148.033L262.409 146.052C264.195 146.296 265.98 146.559 267.762 146.839C269.545 147.119 271.324 147.417 273.099 147.731L272.75 149.701C270.988 149.388 269.222 149.093 267.452 148.815ZM187.178 148.128C183.633 148.623 180.096 149.188 176.571 149.822L176.217 147.853C179.768 147.215 183.33 146.646 186.901 146.147L187.178 148.128ZM293.735 154.278C290.272 153.379 286.789 152.547 283.287 151.783L283.714 149.829C287.241 150.598 290.749 151.436 294.238 152.342L293.735 154.278ZM166.038 151.931C162.544 152.703 159.063 153.543 155.597 154.452L155.089 152.518C158.581 151.602 162.088 150.755 165.607 149.978L166.038 151.931ZM314.297 160.488C310.914 159.32 307.507 158.217 304.077 157.181L304.656 155.267C308.11 156.31 311.542 157.421 314.95 158.598L314.297 160.488ZM145.262 157.382C143.551 157.903 141.843 158.442 140.14 158.998L139.519 157.097C141.235 156.537 142.955 155.994 144.679 155.469L145.262 157.382ZM334.308 168.293C331.026 166.862 327.715 165.495 324.379 164.194L325.106 162.331C328.467 163.642 331.801 165.018 335.107 166.46L334.308 168.293ZM353.645 177.644C350.484 175.959 347.291 174.337 344.068 172.779L344.939 170.978C348.185 172.548 351.401 174.182 354.586 175.879L353.645 177.644ZM372.189 188.484C369.168 186.555 366.112 184.687 363.023 182.882L364.032 181.155C367.144 182.974 370.222 184.855 373.265 186.798L372.189 188.484ZM385.507 197.55C384.056 196.499 382.596 195.463 381.127 194.441L382.268 192.799C383.748 193.828 385.219 194.872 386.68 195.931C388.141 196.99 389.591 198.063 391.03 199.149L389.825 200.745C388.396 199.667 386.957 198.602 385.507 197.55ZM406.444 214.353C403.766 211.979 401.04 209.656 398.267 207.386L399.535 205.838C402.328 208.125 405.073 210.465 407.77 212.856L406.444 214.353ZM421.943 229.222C419.46 226.645 416.925 224.115 414.34 221.635L415.724 220.192C418.328 222.69 420.882 225.238 423.384 227.834L421.943 229.222ZM436.229 245.262C433.954 242.497 431.625 239.776 429.244 237.102L430.737 235.772C433.136 238.466 435.482 241.206 437.773 243.992L436.229 245.262ZM449.211 262.374C447.16 259.437 445.051 256.542 442.888 253.691L444.481 252.482C446.661 255.354 448.784 258.271 450.851 261.229L449.211 262.374ZM460.811 280.452C458.995 277.362 457.121 274.311 455.188 271.299L456.872 270.219C458.818 273.252 460.706 276.326 462.535 279.439L460.811 280.452ZM468.56 294.577C467.745 292.982 466.914 291.396 466.069 289.818L467.832 288.874C468.683 290.462 469.52 292.06 470.341 293.668C471.162 295.275 471.966 296.889 472.755 298.51L470.956 299.385C470.174 297.775 469.375 296.173 468.56 294.577ZM479.584 319.055C478.277 315.724 476.903 312.416 475.463 309.135L477.295 308.331C478.745 311.637 480.129 314.969 481.446 318.324L479.584 319.055ZM486.642 339.341C485.6 335.917 484.49 332.512 483.313 329.128L485.202 328.471C486.387 331.879 487.505 335.309 488.556 338.758L486.642 339.341ZM492.087 360.119C491.316 356.622 490.476 353.14 489.569 349.676L491.503 349.169C492.417 352.659 493.263 356.166 494.04 359.688L492.087 360.119ZM495.884 381.259C495.389 377.712 494.826 374.175 494.193 370.652L496.161 370.298C496.799 373.847 497.367 377.41 497.865 380.983L495.884 381.259ZM498.01 402.633C497.796 399.056 497.511 395.486 497.157 391.925L499.147 391.727C499.504 395.314 499.79 398.91 500.006 402.514L498.01 402.633ZM498.5 418.737C498.498 416.946 498.479 415.155 498.442 413.366L500.442 413.325C500.479 415.127 500.498 416.931 500.5 418.735C500.502 420.54 500.486 422.343 500.452 424.146L498.452 424.108C498.486 422.319 498.502 420.529 498.5 418.737ZM497.208 445.551C497.556 441.99 497.833 438.42 498.041 434.842L500.038 434.958C499.828 438.562 499.549 442.158 499.199 445.746L497.208 445.551ZM494.285 466.831C494.911 463.306 495.468 459.769 495.956 456.22L497.937 456.492C497.446 460.067 496.885 463.63 496.254 467.18L494.285 466.831ZM489.701 487.815C490.602 484.349 491.435 480.866 492.199 477.368L494.153 477.795C493.383 481.319 492.545 484.827 491.637 488.318L489.701 487.815ZM483.485 508.375C484.655 504.989 485.759 501.582 486.795 498.156L488.709 498.735C487.666 502.186 486.554 505.618 485.375 509.028L483.485 508.375ZM475.674 528.384C477.107 525.099 478.475 521.789 479.776 518.456L481.639 519.183C480.328 522.541 478.951 525.875 477.507 529.184L475.674 528.384ZM468.798 542.954C469.61 541.357 470.406 539.753 471.186 538.142L472.986 539.014C472.201 540.636 471.399 542.252 470.581 543.861C469.763 545.469 468.93 547.069 468.082 548.659L466.317 547.718C467.159 546.139 467.986 544.551 468.798 542.954ZM455.472 566.258C457.399 563.243 459.267 560.188 461.077 557.095L462.803 558.104C460.98 561.22 459.098 564.298 457.157 567.335L455.472 566.258ZM443.205 583.89C445.363 581.034 447.466 578.135 449.512 575.195L451.154 576.337C449.093 579.299 446.975 582.219 444.801 585.096L443.205 583.89ZM429.593 600.505C431.969 597.826 434.293 595.101 436.562 592.331L438.109 593.599C435.823 596.389 433.483 599.134 431.089 601.832L429.593 600.505ZM414.719 616C417.299 613.516 419.829 610.981 422.308 608.399L423.751 609.784C421.254 612.385 418.705 614.938 416.106 617.441L414.719 616ZM398.674 630.281C401.442 628.005 404.164 625.677 406.837 623.298L408.166 624.792C405.474 627.189 402.733 629.534 399.944 631.826L398.674 630.281ZM385.932 640.141C387.381 639.087 388.818 638.019 390.244 636.938L391.452 638.531C390.016 639.62 388.568 640.696 387.109 641.758C385.65 642.82 384.181 643.867 382.703 644.898L381.558 643.259C383.025 642.234 384.483 641.195 385.932 640.141ZM363.477 654.853C366.562 653.041 369.615 651.168 372.631 649.233L373.711 650.917C370.672 652.865 367.598 654.752 364.489 656.577L363.477 654.853ZM344.542 664.992C347.761 663.428 350.951 661.799 354.109 660.108L355.053 661.872C351.872 663.575 348.659 665.215 345.416 666.791L344.542 664.992ZM324.869 673.614C328.203 672.307 331.51 670.934 334.79 669.496L335.593 671.328C332.289 672.776 328.957 674.159 325.599 675.476L324.869 673.614ZM304.58 680.666C308.008 679.624 311.413 678.515 314.794 677.34L315.451 679.229C312.045 680.413 308.615 681.53 305.162 682.58L304.58 680.666ZM140.64 679.165C142.344 679.717 144.053 680.253 145.765 680.771L145.186 682.685C143.461 682.163 141.74 681.624 140.023 681.067L140.64 679.165ZM283.801 686.104C287.301 685.334 290.783 684.495 294.244 683.589L294.751 685.524C291.264 686.437 287.756 687.282 284.231 688.058L283.801 686.104ZM156.105 683.681C159.573 684.583 163.056 685.417 166.552 686.182L166.124 688.136C162.603 687.365 159.095 686.525 155.601 685.616L156.105 683.681ZM267.971 689.103C269.74 688.822 271.506 688.523 273.267 688.207L273.62 690.176C271.846 690.494 270.068 690.795 268.285 691.078C266.503 691.362 264.719 691.628 262.934 691.876L262.658 689.895C264.431 689.649 266.202 689.385 267.971 689.103ZM177.088 688.271C180.615 688.898 184.153 689.456 187.699 689.944L187.426 691.926C183.854 691.434 180.291 690.872 176.738 690.24L177.088 688.271ZM241.284 692.015C244.856 691.802 248.426 691.519 251.992 691.165L252.19 693.155C248.597 693.511 245.001 693.797 241.403 694.011L241.284 692.015ZM198.367 691.2C201.931 691.549 205.501 691.828 209.076 692.036L208.959 694.033C205.358 693.823 201.762 693.542 198.172 693.191L198.367 691.2ZM219.81 692.451C223.388 692.519 226.97 692.516 230.551 692.444L230.592 694.443C226.984 694.517 223.377 694.519 219.772 694.45L219.81 692.451Z" fill="#BBBBBB"/>
<circle cx="474" cy="533" r="10" fill="#FCD318"/>
<line x1="484" y1="532.5" x2="545" y2="532.5" stroke="#BBBBBB" stroke-dasharray="7 7"/>
<circle cx="283" cy="684" r="10" fill="#FCD318"/>
<line x1="290.268" y1="691.578" x2="396.935" y2="759.274" stroke="#BBBBBB" stroke-dasharray="7 7"/>
<circle cx="474" cy="305" r="10" fill="#FCD318"/>
<line x1="484" y1="304.5" x2="545" y2="304.5" stroke="#BBBBBB" stroke-dasharray="7 7"/>
<circle cx="298" cy="154" r="10" fill="#FCD318"/>
<line x1="307.73" y1="146.626" x2="391.866" y2="92.5793" stroke="#BBBBBB" stroke-dasharray="7 7"/>
<path d="M118.205 448H133.655V469H130.205V451.3H121.655V469H118.205V448ZM150.344 467.11C148.824 468.63 146.954 469.39 144.734 469.39C142.514 469.39 140.644 468.63 139.124 467.11C137.584 465.57 136.814 463.7 136.814 461.5C136.814 459.3 137.584 457.43 139.124 455.89C140.644 454.37 142.514 453.61 144.734 453.61C146.954 453.61 148.824 454.37 150.344 455.89C151.884 457.43 152.654 459.3 152.654 461.5C152.654 463.7 151.884 465.57 150.344 467.11ZM140.054 461.5C140.054 462.86 140.504 463.99 141.404 464.89C142.304 465.79 143.414 466.24 144.734 466.24C146.054 466.24 147.164 465.79 148.064 464.89C148.964 463.99 149.414 462.86 149.414 461.5C149.414 460.14 148.964 459.01 148.064 458.11C147.164 457.21 146.054 456.76 144.734 456.76C143.414 456.76 142.304 457.21 141.404 458.11C140.504 459.01 140.054 460.14 140.054 461.5ZM164.41 460.87V454H167.65V469H164.41V463.93C163.23 464.37 161.97 464.59 160.63 464.59C158.73 464.59 157.25 464.13 156.19 463.21C155.13 462.27 154.6 460.92 154.6 459.16V454H157.84V458.86C157.84 460.66 158.91 461.56 161.05 461.56C162.27 461.56 163.39 461.33 164.41 460.87ZM185.923 462.88H173.983C174.223 464 174.763 464.87 175.603 465.49C176.463 466.11 177.523 466.42 178.783 466.42C180.483 466.42 181.773 465.8 182.653 464.56L185.323 466.12C183.863 468.3 181.673 469.39 178.753 469.39C176.333 469.39 174.363 468.65 172.843 467.17C171.343 465.67 170.593 463.78 170.593 461.5C170.593 459.28 171.333 457.41 172.813 455.89C174.273 454.37 176.173 453.61 178.513 453.61C180.693 453.61 182.493 454.38 183.913 455.92C185.333 457.46 186.043 459.33 186.043 461.53C186.043 461.93 186.003 462.38 185.923 462.88ZM173.953 460.24H182.773C182.553 459.06 182.053 458.15 181.273 457.51C180.513 456.87 179.583 456.55 178.483 456.55C177.283 456.55 176.283 456.88 175.483 457.54C174.683 458.2 174.173 459.1 173.953 460.24ZM200.894 454H204.194V469H201.044V459.13L196.724 466H196.334L192.044 459.16V469H188.894V454H192.194L196.544 460.93L200.894 454ZM214.207 464.92L218.047 454H221.497L215.737 469.48C215.037 471.38 214.057 472.8 212.797 473.74C211.537 474.68 210.077 475.1 208.417 475V471.97C210.337 472.09 211.667 471.13 212.407 469.09L212.497 468.88L206.197 454H209.647L214.207 464.92ZM234.203 463.51L241.883 454H244.373V469H241.193V459.46L233.513 469H231.023V454H234.203V463.51ZM260.132 454H263.432V469H260.282V459.13L255.962 466H255.572L251.282 459.16V469H248.132V454H251.432L255.782 460.93L260.132 454ZM281.665 462.88H269.725C269.965 464 270.505 464.87 271.345 465.49C272.205 466.11 273.265 466.42 274.525 466.42C276.225 466.42 277.515 465.8 278.395 464.56L281.065 466.12C279.605 468.3 277.415 469.39 274.495 469.39C272.075 469.39 270.105 468.65 268.585 467.17C267.085 465.67 266.335 463.78 266.335 461.5C266.335 459.28 267.075 457.41 268.555 455.89C270.015 454.37 271.915 453.61 274.255 453.61C276.435 453.61 278.235 454.38 279.655 455.92C281.075 457.46 281.785 459.33 281.785 461.53C281.785 461.93 281.745 462.38 281.665 462.88ZM269.695 460.24H278.515C278.295 459.06 277.795 458.15 277.015 457.51C276.255 456.87 275.325 456.55 274.225 456.55C273.025 456.55 272.025 456.88 271.225 457.54C270.425 458.2 269.915 459.1 269.695 460.24ZM294.746 459.97V454H297.986V469H294.746V463.03H287.876V469H284.636V454H287.876V459.97H294.746ZM311.855 459.97V454H315.095V469H311.855V463.03H304.985V469H301.745V454H304.985V459.97H311.855ZM331.545 467.11C330.025 468.63 328.155 469.39 325.935 469.39C323.715 469.39 321.845 468.63 320.325 467.11C318.785 465.57 318.015 463.7 318.015 461.5C318.015 459.3 318.785 457.43 320.325 455.89C321.845 454.37 323.715 453.61 325.935 453.61C328.155 453.61 330.025 454.37 331.545 455.89C333.085 457.43 333.855 459.3 333.855 461.5C333.855 463.7 333.085 465.57 331.545 467.11ZM321.255 461.5C321.255 462.86 321.705 463.99 322.605 464.89C323.505 465.79 324.615 466.24 325.935 466.24C327.255 466.24 328.365 465.79 329.265 464.89C330.165 463.99 330.615 462.86 330.615 461.5C330.615 460.14 330.165 459.01 329.265 458.11C328.365 457.21 327.255 456.76 325.935 456.76C324.615 456.76 323.505 457.21 322.605 458.11C321.705 459.01 321.255 460.14 321.255 461.5ZM211.353 490H214.653V505H211.503V495.13L207.183 502H206.793L202.503 495.16V505H199.353V490H202.653L207.003 496.93L211.353 490ZM221.636 495.1H224.936C226.556 495.1 227.866 495.56 228.866 496.48C229.886 497.38 230.396 498.57 230.396 500.05C230.396 501.51 229.886 502.7 228.866 503.62C227.866 504.54 226.556 505 224.936 505H218.396V490H221.636V495.1ZM232.196 505V490H235.436V505H232.196ZM221.636 502.09H224.966C225.606 502.09 226.136 501.9 226.556 501.52C226.996 501.14 227.216 500.65 227.216 500.05C227.216 499.45 227.006 498.96 226.586 498.58C226.166 498.2 225.626 498.01 224.966 498.01H221.636V502.09ZM246.61 498.4H243.16C243.16 497.6 243.34 496.85 243.7 496.15C244.06 495.43 244.5 494.82 245.02 494.32C245.54 493.8 246.06 493.31 246.58 492.85C247.1 492.37 247.54 491.85 247.9 491.29C248.26 490.73 248.44 490.16 248.44 489.58C248.44 488.76 248.15 488.12 247.57 487.66C246.99 487.2 246.21 486.97 245.23 486.97C244.29 486.97 243.48 487.21 242.8 487.69C242.12 488.17 241.63 488.85 241.33 489.73L238.36 488.05C238.9 486.65 239.79 485.56 241.03 484.78C242.29 484 243.72 483.61 245.32 483.61C247.12 483.61 248.66 484.12 249.94 485.14C251.24 486.16 251.89 487.57 251.89 489.37C251.89 490.19 251.71 490.97 251.35 491.71C250.99 492.45 250.55 493.08 250.03 493.6C249.51 494.12 248.99 494.63 248.47 495.13C247.95 495.61 247.51 496.13 247.15 496.69C246.79 497.25 246.61 497.82 246.61 498.4ZM244.9 500.86C245.52 500.86 246.05 501.08 246.49 501.52C246.93 501.96 247.15 502.49 247.15 503.11C247.15 503.73 246.93 504.26 246.49 504.7C246.05 505.14 245.52 505.36 244.9 505.36C244.28 505.36 243.75 505.14 243.31 504.7C242.87 504.26 242.65 503.73 242.65 503.11C242.65 502.49 242.86 501.96 243.28 501.52C243.72 501.08 244.26 500.86 244.9 500.86Z" fill="#17365E"/>
<g clip-path="url(#clip0_506_83)">
<path d="M225.313 383C227.413 383 228.463 381.5 228.775 379.081C229.025 375.744 230.013 373.987 234.069 371.206C238.275 368.237 240.625 364.394 240.625 358.794C240.625 350.513 234.875 344.875 226.487 344.875C220.112 344.875 215.287 347.95 213.362 352.937C212.779 354.3 212.485 355.768 212.5 357.25C212.5 359.706 213.769 361.25 215.906 361.25C217.606 361.25 218.75 360.331 219.431 358.062C220.419 354.363 222.712 352.344 226.144 352.344C229.956 352.344 232.581 355.131 232.581 359.119C232.581 362.637 231.281 364.65 227.444 367.4C223.575 370.106 221.656 373.113 221.656 377.65V378.344C221.656 381.019 222.956 383 225.313 383Z" fill="#889EBB"/>
<path d="M239.206 338.706L233.45 332.806L237.919 328.444L241.806 332.425L247.369 332.356C249.777 332.328 252.166 332.781 254.396 333.689C256.626 334.597 258.652 335.943 260.355 337.645C262.057 339.348 263.402 341.374 264.311 343.604C265.219 345.834 265.672 348.223 265.644 350.631L265.581 356.194L269.556 360.081C271.278 361.763 272.646 363.773 273.58 365.991C274.514 368.21 274.995 370.593 274.995 373C274.995 375.407 274.514 377.79 273.58 380.008C272.646 382.227 271.278 384.236 269.556 385.919L265.575 389.806L265.644 395.369C265.672 397.776 265.219 400.166 264.311 402.396C263.402 404.626 262.057 406.652 260.355 408.354C258.652 410.057 256.626 411.402 254.396 412.311C252.166 413.219 249.777 413.672 247.369 413.644L241.806 413.581L237.919 417.556C236.236 419.278 234.227 420.646 232.008 421.58C229.79 422.514 227.407 422.995 225 422.995C222.593 422.995 220.21 422.514 217.991 421.58C215.773 420.646 213.764 419.278 212.081 417.556L208.194 413.575L202.631 413.644C200.223 413.672 197.834 413.219 195.604 412.311C193.374 411.402 191.348 410.057 189.645 408.354C187.943 406.652 186.598 404.626 185.689 402.396C184.781 400.166 184.328 397.776 184.356 395.369L184.419 389.806L180.444 385.919C178.722 384.236 177.354 382.227 176.42 380.008C175.486 377.79 175.005 375.407 175.005 373C175.005 370.593 175.486 368.21 176.42 365.991C177.354 363.773 178.722 361.763 180.444 360.081L184.425 356.194L184.356 350.631C184.328 348.223 184.781 345.834 185.689 343.604C186.598 341.374 187.943 339.348 189.645 337.645C191.348 335.943 193.374 334.597 195.604 333.689C197.834 332.781 200.223 332.328 202.631 332.356L208.194 332.419L212.081 328.444C213.764 326.722 215.773 325.354 217.991 324.42C220.21 323.486 222.593 323.005 225 323.005C227.407 323.005 229.79 323.486 232.008 324.42C234.227 325.354 236.236 326.722 237.919 328.444L233.45 332.806C232.35 331.68 231.035 330.785 229.584 330.174C228.133 329.563 226.574 329.248 225 329.248C223.425 329.248 221.867 329.563 220.416 330.174C218.965 330.785 217.65 331.68 216.55 332.806L210.8 338.706L202.55 338.606C200.976 338.589 199.415 338.886 197.957 339.48C196.5 340.074 195.176 340.954 194.063 342.067C192.95 343.181 192.071 344.505 191.478 345.963C190.884 347.421 190.588 348.982 190.606 350.556L190.706 358.794L184.806 364.55C183.68 365.65 182.785 366.964 182.174 368.416C181.563 369.867 181.248 371.425 181.248 373C181.248 374.574 181.563 376.133 182.174 377.584C182.785 379.035 183.68 380.35 184.806 381.45L190.706 387.2L190.606 395.45C190.589 397.024 190.886 398.585 191.48 400.043C192.075 401.5 192.954 402.824 194.067 403.937C195.181 405.049 196.505 405.928 197.963 406.522C199.421 407.116 200.982 407.412 202.556 407.394L210.794 407.294L216.55 413.194C217.65 414.32 218.965 415.215 220.416 415.826C221.867 416.437 223.425 416.752 225 416.752C226.574 416.752 228.133 416.437 229.584 415.826C231.035 415.215 232.35 414.32 233.45 413.194L239.2 407.294L247.45 407.394C249.024 407.411 250.585 407.114 252.043 406.52C253.5 405.925 254.824 405.046 255.937 403.932C257.05 402.819 257.929 401.495 258.522 400.037C259.116 398.579 259.412 397.017 259.394 395.444L259.294 387.206L265.194 381.45C266.32 380.35 267.215 379.035 267.826 377.584C268.437 376.133 268.752 374.574 268.752 373C268.752 371.425 268.437 369.867 267.826 368.416C267.215 366.964 266.32 365.65 265.194 364.55L259.294 358.8L259.394 350.55C259.411 348.976 259.114 347.414 258.52 345.957C257.925 344.5 257.046 343.176 255.932 342.063C254.819 340.95 253.495 340.071 252.037 339.478C250.579 338.884 249.018 338.588 247.444 338.606L239.206 338.706Z" fill="#889EBB"/>
<path d="M218.756 391.75C218.756 390.092 219.415 388.503 220.587 387.331C221.759 386.158 223.349 385.5 225.006 385.5C226.664 385.5 228.254 386.158 229.426 387.331C230.598 388.503 231.256 390.092 231.256 391.75C231.256 393.408 230.598 394.997 229.426 396.169C228.254 397.342 226.664 398 225.006 398C223.349 398 221.759 397.342 220.587 396.169C219.415 394.997 218.756 393.408 218.756 391.75Z" fill="#889EBB"/>
</g>
<g filter="url(#filter1_d_506_83)">
<rect x="395" y="728" width="400" height="100" rx="50" fill="white"/>
<path d="M745 818C750.253 818 755.454 816.965 760.307 814.955C765.16 812.945 769.57 809.999 773.284 806.284C776.999 802.57 779.945 798.16 781.955 793.307C783.965 788.454 785 783.253 785 778C785 772.747 783.965 767.546 781.955 762.693C779.945 757.84 776.999 753.43 773.284 749.716C769.57 746.001 765.16 743.055 760.307 741.045C755.454 739.035 750.253 738 745 738L745 778V818Z" fill="url(#paint1_linear_506_83)"/>
<path d="M546.5 757H556.66V771H554.8V758.76H548.36V771H546.5V757ZM565.004 760.74C566.404 760.74 567.597 761.253 568.584 762.28C569.571 763.307 570.064 764.547 570.064 766C570.064 767.467 569.571 768.713 568.584 769.74C567.611 770.753 566.417 771.26 565.004 771.26C563.351 771.26 562.091 770.6 561.224 769.28V775H559.484V761H561.224V762.72C562.091 761.4 563.351 760.74 565.004 760.74ZM564.784 769.58C565.784 769.58 566.624 769.24 567.304 768.56C567.984 767.853 568.324 767 568.324 766C568.324 764.987 567.984 764.14 567.304 763.46C566.624 762.767 565.784 762.42 564.784 762.42C563.771 762.42 562.924 762.767 562.244 763.46C561.564 764.14 561.224 764.987 561.224 766C561.224 767 561.564 767.853 562.244 768.56C562.924 769.24 563.771 769.58 564.784 769.58ZM580.58 769.74C579.567 770.753 578.32 771.26 576.84 771.26C575.36 771.26 574.114 770.753 573.1 769.74C572.087 768.727 571.58 767.48 571.58 766C571.58 764.52 572.087 763.273 573.1 762.26C574.114 761.247 575.36 760.74 576.84 760.74C578.32 760.74 579.567 761.247 580.58 762.26C581.607 763.287 582.12 764.533 582.12 766C582.12 767.467 581.607 768.713 580.58 769.74ZM576.84 769.56C577.84 769.56 578.68 769.22 579.36 768.54C580.04 767.86 580.38 767.013 580.38 766C580.38 764.987 580.04 764.14 579.36 763.46C578.68 762.78 577.84 762.44 576.84 762.44C575.854 762.44 575.02 762.78 574.34 763.46C573.66 764.14 573.32 764.987 573.32 766C573.32 767.013 573.66 767.86 574.34 768.54C575.02 769.22 575.854 769.56 576.84 769.56ZM592.381 761V769.34H593.761V773.68H592.041V771H584.541V773.68H582.821V769.34H584.041C584.681 768.46 585.001 767.227 585.001 765.64V761H592.381ZM586.021 769.34H590.661V762.62H586.721V765.64C586.721 767.107 586.488 768.34 586.021 769.34ZM603.526 762.72V761H605.266V771H603.526V769.28C602.672 770.6 601.412 771.26 599.746 771.26C598.332 771.26 597.139 770.753 596.166 769.74C595.179 768.713 594.686 767.467 594.686 766C594.686 764.547 595.179 763.307 596.166 762.28C597.152 761.253 598.346 760.74 599.746 760.74C601.412 760.74 602.672 761.4 603.526 762.72ZM599.966 769.58C600.979 769.58 601.826 769.24 602.506 768.56C603.186 767.853 603.526 767 603.526 766C603.526 764.987 603.186 764.14 602.506 763.46C601.826 762.767 600.979 762.42 599.966 762.42C598.966 762.42 598.126 762.767 597.446 763.46C596.766 764.14 596.426 764.987 596.426 766C596.426 767 596.766 767.853 597.446 768.56C598.126 769.24 598.966 769.58 599.966 769.58ZM611.302 759.36C611.102 759.56 610.855 759.66 610.562 759.66C610.269 759.66 610.015 759.56 609.802 759.36C609.602 759.147 609.502 758.893 609.502 758.6C609.502 758.307 609.602 758.06 609.802 757.86C610.015 757.66 610.269 757.56 610.562 757.56C610.855 757.56 611.102 757.66 611.302 757.86C611.502 758.06 611.602 758.307 611.602 758.6C611.602 758.893 611.502 759.147 611.302 759.36ZM615.102 759.36C614.902 759.56 614.655 759.66 614.362 759.66C614.069 759.66 613.815 759.56 613.602 759.36C613.402 759.147 613.302 758.893 613.302 758.6C613.302 758.307 613.402 758.06 613.602 757.86C613.815 757.66 614.069 757.56 614.362 757.56C614.655 757.56 614.902 757.66 615.102 757.86C615.302 758.06 615.402 758.307 615.402 758.6C615.402 758.893 615.302 759.147 615.102 759.36ZM617.502 766.8H609.122C609.295 767.68 609.702 768.373 610.342 768.88C610.982 769.373 611.782 769.62 612.742 769.62C614.062 769.62 615.022 769.133 615.622 768.16L617.102 769C616.115 770.507 614.649 771.26 612.702 771.26C611.129 771.26 609.835 770.767 608.822 769.78C607.835 768.767 607.342 767.507 607.342 766C607.342 764.48 607.829 763.227 608.802 762.24C609.775 761.24 611.035 760.74 612.582 760.74C614.049 760.74 615.242 761.26 616.162 762.3C617.095 763.313 617.562 764.553 617.562 766.02C617.562 766.273 617.542 766.533 617.502 766.8ZM612.582 762.38C611.662 762.38 610.889 762.64 610.262 763.16C609.649 763.68 609.269 764.387 609.122 765.28H615.802C615.655 764.36 615.289 763.647 614.702 763.14C614.115 762.633 613.409 762.38 612.582 762.38ZM627.702 761H629.562V771H627.862V763.74L624.682 768.86H624.462L621.282 763.74V771H619.562V761H621.422L624.562 766.06L627.702 761ZM637.218 761H645.878V771H644.138V762.66H638.958V771H637.218V761ZM656.967 769.74C655.954 770.753 654.707 771.26 653.227 771.26C651.747 771.26 650.5 770.753 649.487 769.74C648.474 768.727 647.967 767.48 647.967 766C647.967 764.52 648.474 763.273 649.487 762.26C650.5 761.247 651.747 760.74 653.227 760.74C654.707 760.74 655.954 761.247 656.967 762.26C657.994 763.287 658.507 764.533 658.507 766C658.507 767.467 657.994 768.713 656.967 769.74ZM653.227 769.56C654.227 769.56 655.067 769.22 655.747 768.54C656.427 767.86 656.767 767.013 656.767 766C656.767 764.987 656.427 764.14 655.747 763.46C655.067 762.78 654.227 762.44 653.227 762.44C652.24 762.44 651.407 762.78 650.727 763.46C650.047 764.14 649.707 764.987 649.707 766C649.707 767.013 650.047 767.86 650.727 768.54C651.407 769.22 652.24 769.56 653.227 769.56ZM673.958 761V769.34H675.598V773.68H673.878V771H665.558V761H667.298V769.34H672.218V761H673.958ZM686.662 766.8H678.282C678.456 767.68 678.862 768.373 679.502 768.88C680.142 769.373 680.942 769.62 681.902 769.62C683.222 769.62 684.182 769.133 684.782 768.16L686.262 769C685.276 770.507 683.809 771.26 681.862 771.26C680.289 771.26 678.996 770.767 677.982 769.78C676.996 768.767 676.502 767.507 676.502 766C676.502 764.48 676.989 763.227 677.962 762.24C678.936 761.24 680.196 760.74 681.742 760.74C683.209 760.74 684.402 761.26 685.322 762.3C686.256 763.313 686.722 764.553 686.722 766.02C686.722 766.273 686.702 766.533 686.662 766.8ZM681.742 762.38C680.822 762.38 680.049 762.64 679.422 763.16C678.809 763.68 678.429 764.387 678.282 765.28H684.962C684.816 764.36 684.449 763.647 683.862 763.14C683.276 762.633 682.569 762.38 681.742 762.38ZM695.642 765.16V761H697.382V771H695.642V766.82H690.462V771H688.722V761H690.462V765.16H695.642ZM709.631 766.8H701.251C701.424 767.68 701.831 768.373 702.471 768.88C703.111 769.373 703.911 769.62 704.871 769.62C706.191 769.62 707.151 769.133 707.751 768.16L709.231 769C708.244 770.507 706.778 771.26 704.831 771.26C703.258 771.26 701.964 770.767 700.951 769.78C699.964 768.767 699.471 767.507 699.471 766C699.471 764.48 699.958 763.227 700.931 762.24C701.904 761.24 703.164 760.74 704.711 760.74C706.178 760.74 707.371 761.26 708.291 762.3C709.224 763.313 709.691 764.553 709.691 766.02C709.691 766.273 709.671 766.533 709.631 766.8ZM704.711 762.38C703.791 762.38 703.018 762.64 702.391 763.16C701.778 763.68 701.398 764.387 701.251 765.28H707.931C707.784 764.36 707.418 763.647 706.831 763.14C706.244 762.633 705.538 762.38 704.711 762.38ZM546.32 785H554.98V795H553.24V786.66H548.06V795H546.32V785ZM563.149 784.74C564.549 784.74 565.742 785.253 566.729 786.28C567.715 787.307 568.209 788.547 568.209 790C568.209 791.467 567.715 792.713 566.729 793.74C565.755 794.753 564.562 795.26 563.149 795.26C561.495 795.26 560.235 794.6 559.369 793.28V799H557.629V785H559.369V786.72C560.235 785.4 561.495 784.74 563.149 784.74ZM562.929 793.58C563.929 793.58 564.769 793.24 565.449 792.56C566.129 791.853 566.469 791 566.469 790C566.469 788.987 566.129 788.14 565.449 787.46C564.769 786.767 563.929 786.42 562.929 786.42C561.915 786.42 561.069 786.767 560.389 787.46C559.709 788.14 559.369 788.987 559.369 790C559.369 791 559.709 791.853 560.389 792.56C561.069 793.24 561.915 793.58 562.929 793.58ZM578.725 793.74C577.712 794.753 576.465 795.26 574.985 795.26C573.505 795.26 572.258 794.753 571.245 793.74C570.232 792.727 569.725 791.48 569.725 790C569.725 788.52 570.232 787.273 571.245 786.26C572.258 785.247 573.505 784.74 574.985 784.74C576.465 784.74 577.712 785.247 578.725 786.26C579.752 787.287 580.265 788.533 580.265 790C580.265 791.467 579.752 792.713 578.725 793.74ZM574.985 793.56C575.985 793.56 576.825 793.22 577.505 792.54C578.185 791.86 578.525 791.013 578.525 790C578.525 788.987 578.185 788.14 577.505 787.46C576.825 786.78 575.985 786.44 574.985 786.44C573.998 786.44 573.165 786.78 572.485 787.46C571.805 788.14 571.465 788.987 571.465 790C571.465 791.013 571.805 791.86 572.485 792.54C573.165 793.22 573.998 793.56 574.985 793.56ZM584.036 792.02L589.576 785H590.976V795H589.256V787.98L583.716 795H582.316V785H584.036V792.02ZM599.025 789.88C600.131 790.347 600.685 791.14 600.685 792.26C600.685 793.127 600.345 793.847 599.665 794.42C598.985 794.98 598.045 795.26 596.845 795.26C594.845 795.26 593.505 794.46 592.825 792.86L594.285 792C594.658 793.093 595.518 793.64 596.865 793.64C597.518 793.64 598.031 793.5 598.405 793.22C598.778 792.94 598.965 792.567 598.965 792.1C598.965 791.7 598.811 791.373 598.505 791.12C598.211 790.867 597.811 790.74 597.305 790.74H595.845V789.16H596.925C597.431 789.16 597.825 789.04 598.105 788.8C598.385 788.547 598.525 788.207 598.525 787.78C598.525 787.34 598.358 786.993 598.025 786.74C597.691 786.473 597.245 786.34 596.685 786.34C595.565 786.34 594.805 786.813 594.405 787.76L592.985 786.94C593.691 785.473 594.925 784.74 596.685 784.74C597.751 784.74 598.605 785.02 599.245 785.58C599.898 786.127 600.225 786.813 600.225 787.64C600.225 788.653 599.825 789.4 599.025 789.88ZM609.23 789.86C610.257 790.287 610.77 791.06 610.77 792.18C610.77 793.033 610.49 793.72 609.93 794.24C609.37 794.747 608.583 795 607.57 795H602.57V785H607.17C608.157 785 608.923 785.247 609.47 785.74C610.03 786.233 610.31 786.893 610.31 787.72C610.31 788.68 609.95 789.393 609.23 789.86ZM607.09 786.56H604.27V789.18H607.09C608.103 789.18 608.61 788.733 608.61 787.84C608.61 786.987 608.103 786.56 607.09 786.56ZM604.27 793.42H607.47C607.977 793.42 608.363 793.3 608.63 793.06C608.91 792.82 609.05 792.48 609.05 792.04C609.05 791.627 608.91 791.307 608.63 791.08C608.363 790.84 607.977 790.72 607.47 790.72H604.27V793.42ZM621.088 793.74C620.075 794.753 618.828 795.26 617.348 795.26C615.868 795.26 614.621 794.753 613.608 793.74C612.595 792.727 612.088 791.48 612.088 790C612.088 788.52 612.595 787.273 613.608 786.26C614.621 785.247 615.868 784.74 617.348 784.74C618.828 784.74 620.075 785.247 621.088 786.26C622.115 787.287 622.628 788.533 622.628 790C622.628 791.467 622.115 792.713 621.088 793.74ZM617.348 793.56C618.348 793.56 619.188 793.22 619.868 792.54C620.548 791.86 620.888 791.013 620.888 790C620.888 788.987 620.548 788.14 619.868 787.46C619.188 786.78 618.348 786.44 617.348 786.44C616.361 786.44 615.528 786.78 614.848 787.46C614.168 788.14 613.828 788.987 613.828 790C613.828 791.013 614.168 791.86 614.848 792.54C615.528 793.22 616.361 793.56 617.348 793.56ZM632.889 785V793.34H634.269V797.68H632.549V795H625.049V797.68H623.329V793.34H624.549C625.189 792.46 625.509 791.227 625.509 789.64V785H632.889ZM626.529 793.34H631.169V786.62H627.229V789.64C627.229 791.107 626.995 792.34 626.529 793.34ZM637.864 792.02L643.404 785H644.804V795H643.084V787.98L637.544 795H636.144V785H637.864V792.02ZM646.333 785H654.893V786.68H651.493V795H649.753V786.68H646.333V785ZM665.627 790.8H657.247C657.42 791.68 657.827 792.373 658.467 792.88C659.107 793.373 659.907 793.62 660.867 793.62C662.187 793.62 663.147 793.133 663.747 792.16L665.227 793C664.24 794.507 662.774 795.26 660.827 795.26C659.254 795.26 657.96 794.767 656.947 793.78C655.96 792.767 655.467 791.507 655.467 790C655.467 788.48 655.954 787.227 656.927 786.24C657.9 785.24 659.16 784.74 660.707 784.74C662.174 784.74 663.367 785.26 664.287 786.3C665.22 787.313 665.687 788.553 665.687 790.02C665.687 790.273 665.667 790.533 665.627 790.8ZM660.707 786.38C659.787 786.38 659.014 786.64 658.387 787.16C657.774 787.68 657.394 788.387 657.247 789.28H663.927C663.78 788.36 663.414 787.647 662.827 787.14C662.24 786.633 661.534 786.38 660.707 786.38ZM668.217 785H675.637V795H673.897V786.68H669.957V790.76C669.957 792.36 669.637 793.5 668.997 794.18C668.357 794.847 667.417 795.12 666.177 795V793.36C666.87 793.453 667.383 793.3 667.717 792.9C668.05 792.487 668.217 791.76 668.217 790.72V785ZM681.493 785H685.753V795H684.033V791.4H682.573L679.773 795H677.653L680.573 791.3C679.813 791.113 679.2 790.74 678.733 790.18C678.28 789.62 678.053 788.967 678.053 788.22C678.053 787.3 678.38 786.533 679.033 785.92C679.686 785.307 680.506 785 681.493 785ZM681.553 789.84H684.033V786.62H681.553C681.046 786.62 680.62 786.773 680.273 787.08C679.94 787.373 679.773 787.76 679.773 788.24C679.773 788.707 679.94 789.093 680.273 789.4C680.62 789.693 681.046 789.84 681.553 789.84Z" fill="#1E1E1E"/>
</g>
<g filter="url(#filter2_d_506_83)">
<rect x="555" y="255" width="400" height="100" rx="50" fill="white"/>
<path d="M905 345C910.253 345 915.454 343.965 920.307 341.955C925.16 339.945 929.57 336.999 933.284 333.284C936.999 329.57 939.945 325.16 941.955 320.307C943.965 315.454 945 310.253 945 305C945 299.747 943.965 294.546 941.955 289.693C939.945 284.84 936.999 280.43 933.284 276.716C929.57 273.001 925.16 270.055 920.307 268.045C915.454 266.035 910.253 265 905 265L905 305V345Z" fill="url(#paint2_linear_506_83)"/>
<path d="M716.76 284V296.24H718.26V300.68H716.4V298H707.16V300.68H705.3V296.24H706.52C707.387 295.147 707.82 293.507 707.82 291.32V284H716.76ZM708.62 296.24H714.9V285.74H709.68V291.36C709.68 293.467 709.327 295.093 708.62 296.24ZM728.116 289.72V288H729.856V298H728.116V296.28C727.262 297.6 726.002 298.26 724.336 298.26C722.922 298.26 721.729 297.753 720.756 296.74C719.769 295.713 719.276 294.467 719.276 293C719.276 291.547 719.769 290.307 720.756 289.28C721.742 288.253 722.936 287.74 724.336 287.74C726.002 287.74 727.262 288.4 728.116 289.72ZM724.556 296.58C725.569 296.58 726.416 296.24 727.096 295.56C727.776 294.853 728.116 294 728.116 293C728.116 291.987 727.776 291.14 727.096 290.46C726.416 289.767 725.569 289.42 724.556 289.42C723.556 289.42 722.716 289.767 722.036 290.46C721.356 291.14 721.016 291.987 721.016 293C721.016 294 721.356 294.853 722.036 295.56C722.716 296.24 723.556 296.58 724.556 296.58ZM742.092 293.8H733.712C733.885 294.68 734.292 295.373 734.932 295.88C735.572 296.373 736.372 296.62 737.332 296.62C738.652 296.62 739.612 296.133 740.212 295.16L741.692 296C740.705 297.507 739.239 298.26 737.292 298.26C735.719 298.26 734.425 297.767 733.412 296.78C732.425 295.767 731.932 294.507 731.932 293C731.932 291.48 732.419 290.227 733.392 289.24C734.365 288.24 735.625 287.74 737.172 287.74C738.639 287.74 739.832 288.26 740.752 289.3C741.685 290.313 742.152 291.553 742.152 293.02C742.152 293.273 742.132 293.533 742.092 293.8ZM737.172 289.38C736.252 289.38 735.479 289.64 734.852 290.16C734.239 290.68 733.859 291.387 733.712 292.28H740.392C740.245 291.36 739.879 290.647 739.292 290.14C738.705 289.633 737.999 289.38 737.172 289.38ZM752.292 288H754.152V298H752.452V290.74L749.272 295.86H749.052L745.872 290.74V298H744.152V288H746.012L749.152 293.06L752.292 288ZM761.808 288H768.368V289.68H763.548V298H761.808V288ZM777.784 289.72V288H779.524V298H777.784V296.28C776.93 297.6 775.67 298.26 774.004 298.26C772.59 298.26 771.397 297.753 770.424 296.74C769.437 295.713 768.944 294.467 768.944 293C768.944 291.547 769.437 290.307 770.424 289.28C771.41 288.253 772.604 287.74 774.004 287.74C775.67 287.74 776.93 288.4 777.784 289.72ZM774.224 296.58C775.237 296.58 776.084 296.24 776.764 295.56C777.444 294.853 777.784 294 777.784 293C777.784 291.987 777.444 291.14 776.764 290.46C776.084 289.767 775.237 289.42 774.224 289.42C773.224 289.42 772.384 289.767 771.704 290.46C771.024 291.14 770.684 291.987 770.684 293C770.684 294 771.024 294.853 771.704 295.56C772.384 296.24 773.224 296.58 774.224 296.58ZM787.68 287.74C789.08 287.74 790.273 288.253 791.26 289.28C792.247 290.307 792.74 291.547 792.74 293C792.74 294.467 792.247 295.713 791.26 296.74C790.287 297.753 789.093 298.26 787.68 298.26C786.027 298.26 784.767 297.6 783.9 296.28V302H782.16V288H783.9V289.72C784.767 288.4 786.027 287.74 787.68 287.74ZM787.46 296.58C788.46 296.58 789.3 296.24 789.98 295.56C790.66 294.853 791 294 791 293C791 291.987 790.66 291.14 789.98 290.46C789.3 289.767 788.46 289.42 787.46 289.42C786.447 289.42 785.6 289.767 784.92 290.46C784.24 291.14 783.9 291.987 783.9 293C783.9 294 784.24 294.853 784.92 295.56C785.6 296.24 786.447 296.58 787.46 296.58ZM803.096 289.72V288H804.836V298H803.096V296.28C802.243 297.6 800.983 298.26 799.316 298.26C797.903 298.26 796.709 297.753 795.736 296.74C794.749 295.713 794.256 294.467 794.256 293C794.256 291.547 794.749 290.307 795.736 289.28C796.723 288.253 797.916 287.74 799.316 287.74C800.983 287.74 802.243 288.4 803.096 289.72ZM799.536 296.58C800.549 296.58 801.396 296.24 802.076 295.56C802.756 294.853 803.096 294 803.096 293C803.096 291.987 802.756 291.14 802.076 290.46C801.396 289.767 800.549 289.42 799.536 289.42C798.536 289.42 797.696 289.767 797.016 290.46C796.336 291.14 795.996 291.987 795.996 293C795.996 294 796.336 294.853 797.016 295.56C797.696 296.24 798.536 296.58 799.536 296.58ZM814.392 292.16V288H816.132V298H814.392V293.82H809.212V298H807.472V288H809.212V292.16H814.392ZM817.661 288H826.221V289.68H822.821V298H821.081V289.68H817.661V288ZM829.466 295.02L835.006 288H836.406V298H834.686V290.98L829.146 298H827.746V288H829.466V295.02ZM847.794 287.74C849.261 287.74 850.501 288.247 851.514 289.26C852.541 290.287 853.054 291.533 853.054 293C853.054 294.467 852.541 295.713 851.514 296.74C850.501 297.753 849.261 298.26 847.794 298.26C846.474 298.26 845.334 297.84 844.374 297C843.401 296.16 842.828 295.1 842.654 293.82H840.794V298H839.054V288H840.794V292.16H842.654C842.841 290.88 843.414 289.827 844.374 289C845.361 288.16 846.501 287.74 847.794 287.74ZM847.794 296.56C848.781 296.56 849.614 296.22 850.294 295.54C850.974 294.86 851.314 294.013 851.314 293C851.314 291.987 850.974 291.14 850.294 290.46C849.614 289.78 848.781 289.44 847.794 289.44C846.794 289.44 845.954 289.78 845.274 290.46C844.594 291.14 844.254 291.987 844.254 293C844.254 294.013 844.594 294.86 845.274 295.54C845.954 296.22 846.794 296.56 847.794 296.56ZM714.92 312V320.34H716.3V324.68H714.58V322H707.08V324.68H705.36V320.34H706.58C707.22 319.46 707.54 318.227 707.54 316.64V312H714.92ZM708.56 320.34H713.2V313.62H709.26V316.64C709.26 318.107 709.027 319.34 708.56 320.34ZM726.225 320.74C725.212 321.753 723.965 322.26 722.485 322.26C721.005 322.26 719.758 321.753 718.745 320.74C717.732 319.727 717.225 318.48 717.225 317C717.225 315.52 717.732 314.273 718.745 313.26C719.758 312.247 721.005 311.74 722.485 311.74C723.965 311.74 725.212 312.247 726.225 313.26C727.252 314.287 727.765 315.533 727.765 317C727.765 318.467 727.252 319.713 726.225 320.74ZM722.485 320.56C723.485 320.56 724.325 320.22 725.005 319.54C725.685 318.86 726.025 318.013 726.025 317C726.025 315.987 725.685 315.14 725.005 314.46C724.325 313.78 723.485 313.44 722.485 313.44C721.498 313.44 720.665 313.78 719.985 314.46C719.305 315.14 718.965 315.987 718.965 317C718.965 318.013 719.305 318.86 719.985 319.54C720.665 320.22 721.498 320.56 722.485 320.56ZM743.256 322H734.216V320.48L739.156 315.44C740.476 314.12 741.136 312.987 741.136 312.04C741.136 311.267 740.896 310.66 740.416 310.22C739.949 309.767 739.363 309.54 738.656 309.54C737.336 309.54 736.376 310.167 735.776 311.42L734.216 310.5C734.643 309.607 735.243 308.927 736.016 308.46C736.789 307.98 737.663 307.74 738.636 307.74C739.823 307.74 740.843 308.127 741.696 308.9C742.563 309.687 742.996 310.727 742.996 312.02C742.996 313.433 742.163 314.973 740.496 316.64L736.916 320.2H743.256V322ZM747.247 313.46H749.287C750.607 313.46 751.72 313.853 752.627 314.64C753.547 315.427 754.007 316.5 754.007 317.86C754.007 319.233 753.54 320.307 752.607 321.08C751.66 321.867 750.527 322.26 749.207 322.26C748.113 322.26 747.147 322 746.307 321.48C745.48 320.947 744.907 320.207 744.587 319.26L746.167 318.36C746.353 319.027 746.713 319.54 747.247 319.9C747.78 320.26 748.433 320.44 749.207 320.44C750.1 320.44 750.813 320.213 751.347 319.76C751.893 319.293 752.167 318.66 752.167 317.86C752.167 317.06 751.893 316.427 751.347 315.96C750.813 315.493 750.113 315.26 749.247 315.26H745.287L745.807 308H753.467V309.74H747.487L747.247 313.46ZM761.986 312H769.406V322H767.666V313.68H763.726V317.76C763.726 319.36 763.406 320.5 762.766 321.18C762.126 321.847 761.186 322.12 759.946 322V320.36C760.639 320.453 761.153 320.3 761.486 319.9C761.819 319.487 761.986 318.76 761.986 317.72V312ZM781.643 317.8H773.263C773.436 318.68 773.843 319.373 774.483 319.88C775.123 320.373 775.923 320.62 776.883 320.62C778.203 320.62 779.163 320.133 779.763 319.16L781.243 320C780.256 321.507 778.789 322.26 776.843 322.26C775.269 322.26 773.976 321.767 772.963 320.78C771.976 319.767 771.483 318.507 771.483 317C771.483 315.48 771.969 314.227 772.943 313.24C773.916 312.24 775.176 311.74 776.723 311.74C778.189 311.74 779.383 312.26 780.303 313.3C781.236 314.313 781.703 315.553 781.703 317.02C781.703 317.273 781.683 317.533 781.643 317.8ZM776.723 313.38C775.803 313.38 775.029 313.64 774.403 314.16C773.789 314.68 773.409 315.387 773.263 316.28H779.943C779.796 315.36 779.429 314.647 778.843 314.14C778.256 313.633 777.549 313.38 776.723 313.38ZM782.192 312H790.752V313.68H787.352V322H785.612V313.68H782.192V312Z" fill="#1E1E1E"/>
</g>
<circle cx="615" cy="305" r="66.5" fill="#1FB69A" stroke="#0E8671" stroke-width="7"/>
<path d="M641.225 321.337L630 310.127C633.058 306.506 634.73 301.972 634.73 297.167C634.73 296.642 634.71 296.096 634.67 295.592C634.589 294.582 633.677 293.804 632.694 293.911C631.683 293.991 630.93 294.875 631.011 295.883C631.042 296.294 631.059 296.74 631.059 297.167C631.059 301.605 629.322 305.765 626.172 308.878C623.769 311.243 620.762 312.809 617.456 313.406C615.704 313.746 613.56 313.768 611.506 313.384C608.233 312.789 605.241 311.214 602.856 308.832C599.735 305.714 598.015 301.57 598.015 297.167C598.015 288.07 605.428 280.667 614.537 280.667C618.981 280.667 623.154 282.406 626.284 285.567C626.996 286.286 628.16 286.293 628.88 285.582C629.601 284.871 629.607 283.71 628.894 282.99C625.069 279.127 619.969 277 614.537 277C603.403 277 594.343 286.048 594.343 297.167C594.343 301.935 595.997 306.449 599.025 310.066L587.538 321.537C587.013 322.061 586.855 322.85 587.14 323.535C587.424 324.219 588.094 324.667 588.836 324.667H594.343V330.167C594.343 330.907 594.791 331.577 595.476 331.861C595.704 331.954 595.942 332 596.179 332C596.656 332 597.126 331.813 597.477 331.463L611.831 317.128C612.732 317.251 613.636 317.333 614.537 317.333C615.453 317.333 616.319 317.256 617.151 317.146L631.487 331.463C631.837 331.813 632.307 332 632.784 332C633.021 332 633.26 331.954 633.488 331.861C634.174 331.577 634.62 330.907 634.62 330.167V324.667H640.128C640.133 324.667 640.14 324.667 640.146 324.667C641.238 324.615 642 323.853 642 322.833C642 322.216 641.693 321.669 641.225 321.337ZM598.015 325.741V322.833C598.015 321.821 597.193 321 596.179 321H593.268L601.615 312.664C601.729 312.757 601.85 312.84 601.964 312.932C602.246 313.159 602.533 313.381 602.827 313.59C602.995 313.711 603.168 313.824 603.341 313.94C603.629 314.132 603.919 314.319 604.216 314.495C604.396 314.604 604.578 314.708 604.761 314.809C605.066 314.977 605.375 315.137 605.687 315.289C605.868 315.377 606.048 315.467 606.232 315.55C606.573 315.704 606.92 315.843 607.269 315.977C607.394 316.024 607.513 316.083 607.64 316.129L598.015 325.741ZM632.784 321C631.771 321 630.949 321.821 630.949 322.833V325.741L621.348 316.151C621.487 316.101 621.621 316.035 621.761 315.982C622.089 315.856 622.416 315.727 622.739 315.584C622.939 315.494 623.136 315.397 623.334 315.304C623.631 315.159 623.925 315.011 624.213 314.851C624.41 314.743 624.604 314.633 624.797 314.519C625.083 314.351 625.362 314.175 625.64 313.991C625.823 313.87 626.005 313.751 626.183 313.624C626.473 313.419 626.756 313.203 627.035 312.981C627.152 312.887 627.277 312.805 627.393 312.71L635.696 321H632.784Z" fill="white"/>
<path d="M606.048 294.048C605.31 293.357 604.147 293.396 603.454 294.134C602.762 294.873 602.801 296.034 603.541 296.725L613.294 305.838C613.645 306.168 614.096 306.333 614.546 306.333C614.996 306.333 615.448 306.168 615.8 305.838L635.421 287.505C636.16 286.814 636.199 285.653 635.507 284.915C634.813 284.174 633.651 284.137 632.913 284.828L614.548 301.988L606.048 294.048Z" fill="white"/>
<g filter="url(#filter3_d_506_83)">
<rect x="395" y="20" width="400" height="100" rx="50" fill="white"/>
<path d="M745 110C750.253 110 755.454 108.965 760.307 106.955C765.16 104.945 769.57 101.999 773.284 98.2843C776.999 94.5699 779.945 90.1604 781.955 85.3073C783.965 80.4543 785 75.2529 785 70C785 64.7471 783.965 59.5457 781.955 54.6927C779.945 49.8396 776.999 45.4301 773.284 41.7157C769.57 38.0014 765.16 35.055 760.307 33.0448C755.454 31.0346 750.253 30 745 30L745 70V110Z" fill="url(#paint3_linear_506_83)"/>
<path d="M545.28 62.28L548.96 61H550.56V75H548.72V63L545.74 63.88L545.28 62.28ZM562.409 73.28C561.476 74.6 560.149 75.26 558.429 75.26C556.709 75.26 555.382 74.6 554.449 73.28C553.502 71.9467 553.029 70.1867 553.029 68C553.029 65.8133 553.502 64.0533 554.449 62.72C555.382 61.4 556.709 60.74 558.429 60.74C560.149 60.74 561.476 61.4 562.409 62.72C563.356 64.0533 563.829 65.8133 563.829 68C563.829 70.1867 563.356 71.9467 562.409 73.28ZM554.889 68C554.889 69.7333 555.196 71.0733 555.809 72.02C556.422 72.9667 557.296 73.44 558.429 73.44C559.562 73.44 560.436 72.9667 561.049 72.02C561.676 71.0733 561.989 69.7333 561.989 68C561.989 66.2667 561.676 64.9267 561.049 63.98C560.436 63.02 559.562 62.54 558.429 62.54C557.296 62.54 556.422 63.0133 555.809 63.96C555.196 64.9067 554.889 66.2533 554.889 68ZM571.967 65H579.387V75H577.647V66.68H573.707V70.76C573.707 72.36 573.387 73.5 572.747 74.18C572.107 74.8467 571.167 75.12 569.927 75V73.36C570.62 73.4533 571.133 73.3 571.467 72.9C571.8 72.4867 571.967 71.76 571.967 70.72V65ZM591.623 70.8H583.243C583.416 71.68 583.823 72.3733 584.463 72.88C585.103 73.3733 585.903 73.62 586.863 73.62C588.183 73.62 589.143 73.1333 589.743 72.16L591.223 73C590.236 74.5067 588.77 75.26 586.823 75.26C585.25 75.26 583.956 74.7667 582.943 73.78C581.956 72.7667 581.463 71.5067 581.463 70C581.463 68.48 581.95 67.2267 582.923 66.24C583.896 65.24 585.156 64.74 586.703 64.74C588.17 64.74 589.363 65.26 590.283 66.3C591.216 67.3133 591.683 68.5533 591.683 70.02C591.683 70.2733 591.663 70.5333 591.623 70.8ZM586.703 66.38C585.783 66.38 585.01 66.64 584.383 67.16C583.77 67.68 583.39 68.3867 583.243 69.28H589.923C589.776 68.36 589.41 67.6467 588.823 67.14C588.236 66.6333 587.53 66.38 586.703 66.38ZM592.173 65H600.733V66.68H597.333V75H595.593V66.68H592.173V65ZM614.178 69.16V65H615.918V75H614.178V70.82H608.998V75H607.257V65H608.998V69.16H614.178ZM626.846 66.72V65H628.586V75H626.846V73.28C625.993 74.6 624.733 75.26 623.066 75.26C621.653 75.26 620.459 74.7533 619.486 73.74C618.499 72.7133 618.006 71.4667 618.006 70C618.006 68.5467 618.499 67.3067 619.486 66.28C620.473 65.2533 621.666 64.74 623.066 64.74C624.733 64.74 625.993 65.4 626.846 66.72ZM623.286 73.58C624.299 73.58 625.146 73.24 625.826 72.56C626.506 71.8533 626.846 71 626.846 70C626.846 68.9867 626.506 68.14 625.826 67.46C625.146 66.7667 624.299 66.42 623.286 66.42C622.286 66.42 621.446 66.7667 620.766 67.46C620.086 68.14 619.746 68.9867 619.746 70C619.746 71 620.086 71.8533 620.766 72.56C621.446 73.24 622.286 73.58 623.286 73.58ZM641.742 64.74C643.142 64.74 644.336 65.2533 645.322 66.28C646.309 67.3067 646.802 68.5467 646.802 70C646.802 71.4667 646.309 72.7133 645.322 73.74C644.349 74.7533 643.156 75.26 641.742 75.26C640.089 75.26 638.829 74.6 637.962 73.28V79H636.222V65H637.962V66.72C638.829 65.4 640.089 64.74 641.742 64.74ZM641.522 73.58C642.522 73.58 643.362 73.24 644.042 72.56C644.722 71.8533 645.062 71 645.062 70C645.062 68.9867 644.722 68.14 644.042 67.46C643.362 66.7667 642.522 66.42 641.522 66.42C640.509 66.42 639.662 66.7667 638.982 67.46C638.302 68.14 637.962 68.9867 637.962 70C637.962 71 638.302 71.8533 638.982 72.56C639.662 73.24 640.509 73.58 641.522 73.58ZM650.619 68.6H653.099C654.099 68.6 654.925 68.9 655.579 69.5C656.245 70.0867 656.579 70.8533 656.579 71.8C656.579 72.7467 656.245 73.52 655.579 74.12C654.912 74.7067 654.085 75 653.099 75H648.879V65H650.619V68.6ZM657.879 75V65H659.619V75H657.879ZM650.619 73.38H653.099C653.605 73.38 654.025 73.2333 654.359 72.94C654.692 72.6467 654.859 72.2667 654.859 71.8C654.859 71.3333 654.685 70.9533 654.339 70.66C654.005 70.3533 653.592 70.2 653.099 70.2H650.619V73.38ZM669.197 69.16V65H670.937V75H669.197V70.82H664.017V75H662.277V65H664.017V69.16H669.197ZM677.106 69.84L682.046 75H679.886L675.326 70.26V75H673.586V65H675.326V69.42L679.646 65H681.886L677.106 69.84ZM692.346 70.8H683.966C684.139 71.68 684.546 72.3733 685.186 72.88C685.826 73.3733 686.626 73.62 687.586 73.62C688.906 73.62 689.866 73.1333 690.466 72.16L691.946 73C690.959 74.5067 689.492 75.26 687.546 75.26C685.972 75.26 684.679 74.7667 683.666 73.78C682.679 72.7667 682.186 71.5067 682.186 70C682.186 68.48 682.672 67.2267 683.646 66.24C684.619 65.24 685.879 64.74 687.426 64.74C688.892 64.74 690.086 65.26 691.006 66.3C691.939 67.3133 692.406 68.5533 692.406 70.02C692.406 70.2733 692.386 70.5333 692.346 70.8ZM687.426 66.38C686.506 66.38 685.732 66.64 685.106 67.16C684.492 67.68 684.112 68.3867 683.966 69.28H690.646C690.499 68.36 690.132 67.6467 689.546 67.14C688.959 66.6333 688.252 66.38 687.426 66.38Z" fill="#1E1E1E"/>
</g>
<circle cx="455" cy="70" r="66.5" fill="#F5921D" stroke="#CA7614" stroke-width="7"/>
<path d="M465.938 51.4062C465.938 52.9205 466.387 54.4008 467.228 55.6598C468.069 56.9189 469.265 57.9002 470.664 58.4797C472.063 59.0592 473.602 59.2108 475.087 58.9154C476.573 58.62 477.937 57.8908 479.008 56.82C480.078 55.7493 480.807 54.3851 481.103 52.8999C481.398 51.4147 481.247 49.8753 480.667 48.4763C480.088 47.0773 479.106 45.8816 477.847 45.0403C476.588 44.199 475.108 43.75 473.594 43.75C471.564 43.7523 469.618 44.5597 468.183 45.995C466.747 47.4303 465.94 49.3764 465.938 51.4062ZM473.594 45.9375C474.675 45.9375 475.733 46.2582 476.632 46.8592C477.531 47.4601 478.232 48.3142 478.646 49.3135C479.06 50.3127 479.168 51.4123 478.957 52.4732C478.746 53.534 478.226 54.5084 477.461 55.2732C476.696 56.0381 475.721 56.5589 474.661 56.7699C473.6 56.9809 472.5 56.8726 471.501 56.4587C470.502 56.0448 469.648 55.3439 469.047 54.4445C468.446 53.5452 468.125 52.4879 468.125 51.4062C468.127 49.9564 468.703 48.5664 469.729 47.5412C470.754 46.516 472.144 45.9392 473.594 45.9375Z" fill="white"/>
<path d="M474.688 38.2812C474.688 37.6772 474.198 37.1875 473.594 37.1875C472.99 37.1875 472.5 37.6772 472.5 38.2812V40.4688C472.5 41.0728 472.99 41.5625 473.594 41.5625C474.198 41.5625 474.688 41.0728 474.688 40.4688V38.2812Z" fill="white"/>
<path d="M436.406 38.2812C436.406 37.6772 435.917 37.1875 435.312 37.1875C434.708 37.1875 434.219 37.6772 434.219 38.2812V40.4688C434.219 41.0728 434.708 41.5625 435.312 41.5625C435.917 41.5625 436.406 41.0728 436.406 40.4688V38.2812Z" fill="white"/>
<path d="M443.423 40.4687L441.875 42.0163C441.676 42.2226 441.566 42.4989 441.568 42.7857C441.571 43.0725 441.686 43.3468 441.888 43.5496C442.091 43.7524 442.365 43.8674 442.652 43.8699C442.939 43.8724 443.215 43.7621 443.422 43.5629L444.969 42.0152C445.074 41.9143 445.157 41.7937 445.214 41.6602C445.272 41.5268 445.302 41.3832 445.303 41.238C445.304 41.0928 445.277 40.9488 445.222 40.8143C445.167 40.6799 445.085 40.5578 444.983 40.4551C444.88 40.3524 444.758 40.2712 444.624 40.2162C444.489 40.1612 444.345 40.1335 444.2 40.1348C444.055 40.1361 443.911 40.1662 443.778 40.2236C443.644 40.2809 443.524 40.3642 443.423 40.4687Z" fill="white"/>
<path d="M427.015 40.4686C426.809 40.2694 426.533 40.1592 426.246 40.1617C425.959 40.1642 425.685 40.2792 425.482 40.482C425.279 40.6848 425.164 40.9591 425.162 41.2459C425.159 41.5326 425.27 41.8089 425.469 42.0152L427.016 43.5629C427.223 43.7621 427.499 43.8723 427.786 43.8699C428.073 43.8674 428.347 43.7523 428.55 43.5495C428.752 43.3468 428.867 43.0724 428.87 42.7857C428.872 42.4989 428.762 42.2226 428.563 42.0163L427.015 40.4686Z" fill="white"/>
<path d="M447.344 49.2188H445.156C444.552 49.2188 444.062 49.7084 444.062 50.3125C444.062 50.9166 444.552 51.4062 445.156 51.4062H447.344C447.948 51.4062 448.438 50.9166 448.438 50.3125C448.438 49.7084 447.948 49.2188 447.344 49.2188Z" fill="white"/>
<path d="M425.469 49.2188H423.281C422.677 49.2188 422.188 49.7084 422.188 50.3125C422.188 50.9166 422.677 51.4062 423.281 51.4062H425.469C426.073 51.4062 426.562 50.9166 426.562 50.3125C426.562 49.7084 426.073 49.2188 425.469 49.2188Z" fill="white"/>
<path d="M486.719 50.3125H484.531C483.927 50.3125 483.438 50.8022 483.438 51.4062C483.438 52.0103 483.927 52.5 484.531 52.5H486.719C487.323 52.5 487.812 52.0103 487.812 51.4062C487.812 50.8022 487.323 50.3125 486.719 50.3125Z" fill="white"/>
<path d="M462.656 50.3125H460.469C459.865 50.3125 459.375 50.8022 459.375 51.4062C459.375 52.0103 459.865 52.5 460.469 52.5H462.656C463.26 52.5 463.75 52.0103 463.75 51.4062C463.75 50.8022 463.26 50.3125 462.656 50.3125Z" fill="white"/>
<path d="M483.647 41.3525C483.442 41.1474 483.164 41.0322 482.874 41.0322C482.584 41.0322 482.306 41.1474 482.101 41.3525L480.554 42.899C480.355 43.1053 480.245 43.3816 480.247 43.6684C480.25 43.9551 480.365 44.2295 480.568 44.4323C480.77 44.6351 481.045 44.7501 481.332 44.7526C481.618 44.7551 481.895 44.6448 482.101 44.4456L483.647 42.899C483.853 42.6939 483.968 42.4158 483.968 42.1257C483.968 41.8357 483.853 41.5576 483.647 41.3525Z" fill="white"/>
<path d="M465.087 58.3671L463.54 59.9137C463.341 60.12 463.23 60.3962 463.233 60.683C463.235 60.9698 463.35 61.2441 463.553 61.4469C463.756 61.6497 464.03 61.7647 464.317 61.7672C464.604 61.7697 464.88 61.6595 465.087 61.4602L466.633 59.9137C466.738 59.8128 466.821 59.6921 466.878 59.5586C466.935 59.4252 466.966 59.2817 466.967 59.1365C466.968 58.9912 466.941 58.8472 466.886 58.7128C466.831 58.5784 466.749 58.4562 466.647 58.3536C466.544 58.2509 466.422 58.1696 466.287 58.1147C466.153 58.0597 466.009 58.032 465.864 58.0332C465.718 58.0345 465.575 58.0647 465.442 58.122C465.308 58.1793 465.187 58.2626 465.087 58.3671Z" fill="white"/>
<path d="M480.554 58.3671C480.349 58.5722 480.234 58.8504 480.234 59.1404C480.234 59.4304 480.349 59.7086 480.554 59.9137L482.101 61.4602C482.307 61.6595 482.583 61.7697 482.87 61.7672C483.157 61.7647 483.431 61.6497 483.634 61.4469C483.837 61.2441 483.952 60.9698 483.954 60.683C483.957 60.3962 483.847 60.12 483.647 59.9137L482.101 58.3671C481.896 58.1621 481.618 58.0469 481.328 58.0469C481.038 58.0469 480.759 58.1621 480.554 58.3671Z" fill="white"/>
<path d="M465.087 41.3524C464.88 41.1532 464.604 41.043 464.317 41.0455C464.03 41.0479 463.756 41.163 463.553 41.3658C463.35 41.5686 463.235 41.8429 463.233 42.1297C463.23 42.4164 463.341 42.6927 463.54 42.899L465.087 44.4456C465.187 44.55 465.308 44.6334 465.442 44.6907C465.575 44.748 465.718 44.7782 465.864 44.7794C466.009 44.7807 466.153 44.753 466.287 44.698C466.422 44.643 466.544 44.5618 466.647 44.4591C466.749 44.3564 466.831 44.2343 466.886 44.0999C466.941 43.9655 466.968 43.8214 466.967 43.6762C466.966 43.531 466.935 43.3875 466.878 43.254C466.821 43.1206 466.738 42.9999 466.633 42.899L465.087 41.3524Z" fill="white"/>
<path d="M452.385 74.375H442.969C442.799 74.375 442.631 74.4145 442.48 74.4905C442.328 74.5664 442.196 74.6767 442.094 74.8125L428.969 92.3125C428.847 92.475 428.773 92.6682 428.754 92.8705C428.736 93.0728 428.775 93.2762 428.865 93.4579C428.956 93.6396 429.096 93.7924 429.269 93.8991C429.442 94.0059 429.641 94.0625 429.844 94.0625H453.906V100.625H451.719C451.429 100.625 451.15 100.74 450.945 100.945C450.74 101.15 450.625 101.429 450.625 101.719C450.625 102.009 450.74 102.287 450.945 102.492C451.15 102.697 451.429 102.812 451.719 102.812H458.281C458.571 102.812 458.85 102.697 459.055 102.492C459.26 102.287 459.375 102.009 459.375 101.719C459.375 101.429 459.26 101.15 459.055 100.945C458.85 100.74 458.571 100.625 458.281 100.625H456.094V94.0625H480.156C480.359 94.0625 480.558 94.0059 480.731 93.8991C480.904 93.7924 481.044 93.6396 481.135 93.4579C481.225 93.2762 481.264 93.0728 481.246 92.8705C481.227 92.6682 481.153 92.475 481.031 92.3125L467.906 74.8125C467.804 74.6767 467.672 74.5664 467.52 74.4905C467.369 74.4145 467.201 74.375 467.031 74.375H452.385ZM453.315 76.5625H456.685L457.042 78.75H452.958L453.315 76.5625ZM443.516 76.5625H446.549L445.621 78.75H441.875L443.516 76.5625ZM440.234 80.9375H444.694L443.766 83.125H438.594L440.234 80.9375ZM440.057 91.875H432.031L433.672 89.6875H440.984L440.057 91.875ZM435.313 87.5L436.953 85.3125H442.839L441.911 87.5H435.313ZM448.602 91.875H442.433L443.36 89.6875H448.958L448.602 91.875ZM449.315 87.5H444.283L445.211 85.3125H449.667L449.315 87.5ZM450.028 83.125H446.141L447.068 80.9375H450.384L450.028 83.125ZM448 78.75L448.927 76.5625H451.102L450.745 78.75H448ZM460.332 85.3125H464.788L465.715 87.5H460.688L460.332 85.3125ZM461.402 91.875L461.045 89.6875H466.643L467.57 91.875H461.402ZM477.969 91.875H469.943L469.016 89.6875H476.328L477.969 91.875ZM474.688 87.5H468.089L467.161 85.3125H473.047L474.688 87.5ZM471.406 83.125H466.234L465.306 80.9375H469.766L471.406 83.125ZM466.484 76.5625L468.125 78.75H464.379L463.451 76.5625H466.484ZM463.859 83.125H459.972L459.615 80.9375H462.931L463.859 83.125ZM461.077 76.5625L462.004 78.75H459.259L458.903 76.5625H461.077ZM459.183 91.875H450.818L451.174 89.6875H458.83L459.183 91.875ZM458.469 87.5H451.531L451.888 85.3125H458.112L458.469 87.5ZM452.245 83.125L452.601 80.9375H457.399L457.755 83.125H452.245Z" fill="white"/>
<path d="M428.75 50.3125C428.749 51.2323 428.943 52.1419 429.32 52.9808C429.697 53.8198 430.249 54.5689 430.938 55.1786V55.7812C430.937 55.9509 430.977 56.1183 431.052 56.2702L432.031 58.2269V61.25C432.031 61.8302 432.262 62.3866 432.672 62.7968C433.082 63.207 433.639 63.4375 434.219 63.4375H436.406C436.986 63.4375 437.543 63.207 437.953 62.7968C438.363 62.3866 438.594 61.8302 438.594 61.25V58.2269L439.573 56.2702C439.648 56.1183 439.688 55.9509 439.688 55.7812V55.1786C440.376 54.5689 440.928 53.8198 441.305 52.9808C441.682 52.1419 441.876 51.2323 441.875 50.3125C441.875 48.572 441.184 46.9028 439.953 45.6721C438.722 44.4414 437.053 43.75 435.313 43.75C433.572 43.75 431.903 44.4414 430.672 45.6721C429.441 46.9028 428.75 48.572 428.75 50.3125ZM434.219 61.25V59.0625H436.406V61.25H434.219ZM435.313 45.9375C436.473 45.9375 437.586 46.3984 438.406 47.2189C439.227 48.0394 439.688 49.1522 439.688 50.3125C439.687 50.9885 439.529 51.6551 439.225 52.2591C438.921 52.863 438.48 53.3875 437.938 53.7906C437.802 53.8925 437.691 54.0246 437.615 54.1765C437.54 54.3284 437.5 54.4958 437.5 54.6656V55.5253L436.824 56.875H433.801L433.125 55.5231V54.6634C433.125 54.4936 433.085 54.3262 433.01 54.1743C432.934 54.0224 432.823 53.8903 432.688 53.7884C432.145 53.3855 431.704 52.8614 431.401 52.2578C431.097 51.6543 430.938 50.9882 430.938 50.3125C430.938 49.1522 431.398 48.0394 432.219 47.2189C433.039 46.3984 434.152 45.9375 435.313 45.9375Z" fill="white"/>
<path d="M473.594 63.4375C474.198 63.4375 474.688 62.9478 474.688 62.3438C474.688 61.7397 474.198 61.25 473.594 61.25C472.99 61.25 472.5 61.7397 472.5 62.3438C472.5 62.9478 472.99 63.4375 473.594 63.4375Z" fill="white"/>
<path d="M473.594 67.8125C474.198 67.8125 474.688 67.3228 474.688 66.7188C474.688 66.1147 474.198 65.625 473.594 65.625C472.99 65.625 472.5 66.1147 472.5 66.7188C472.5 67.3228 472.99 67.8125 473.594 67.8125Z" fill="white"/>
<path d="M473.594 72.1875C474.198 72.1875 474.688 71.6978 474.688 71.0938C474.688 70.4897 474.198 70 473.594 70C472.99 70 472.5 70.4897 472.5 71.0938C472.5 71.6978 472.99 72.1875 473.594 72.1875Z" fill="white"/>
<path d="M473.594 76.5625C474.198 76.5625 474.688 76.0728 474.688 75.4688C474.688 74.8647 474.198 74.375 473.594 74.375C472.99 74.375 472.5 74.8647 472.5 75.4688C472.5 76.0728 472.99 76.5625 473.594 76.5625Z" fill="white"/>
<path d="M435.312 67.8125C435.917 67.8125 436.406 67.3228 436.406 66.7188C436.406 66.1147 435.917 65.625 435.312 65.625C434.708 65.625 434.219 66.1147 434.219 66.7188C434.219 67.3228 434.708 67.8125 435.312 67.8125Z" fill="white"/>
<path d="M435.312 72.1875C435.917 72.1875 436.406 71.6978 436.406 71.0938C436.406 70.4897 435.917 70 435.312 70C434.708 70 434.219 70.4897 434.219 71.0938C434.219 71.6978 434.708 72.1875 435.312 72.1875Z" fill="white"/>
<path d="M435.312 76.5625C435.917 76.5625 436.406 76.0728 436.406 75.4688C436.406 74.8647 435.917 74.375 435.312 74.375C434.708 74.375 434.219 74.8647 434.219 75.4688C434.219 76.0728 434.708 76.5625 435.312 76.5625Z" fill="white"/>
<circle cx="615" cy="533" r="66.5" fill="#F73555" stroke="#CE233F" stroke-width="7"/>
<path d="M609.922 536.729L599.366 535.934L593.232 544.194C600.54 550.666 607.848 557.138 615.157 563.611L617.041 562.515L612.202 557.2C610.683 555.53 613.225 553.218 614.744 554.887L620.081 560.749L623.33 558.862L618.439 553.895C616.856 552.285 619.304 549.879 620.887 551.488L626.394 557.081L630.247 554.843C626.104 551.221 621.961 547.6 617.818 543.978L612.636 548.658C612.003 549.231 611.058 549.243 610.413 548.723L605.36 544.882C604.555 544.272 604.469 543.177 605.094 542.404L609.922 536.729ZM598.12 514.952C596.742 513.167 599.459 511.07 600.837 512.854L603.735 516.621L611.892 507.667C613.411 505.997 615.952 508.31 614.434 509.98L604.895 520.449C604.178 521.233 602.922 521.191 602.267 520.343L598.12 514.952ZM606.32 498.568C614.876 498.568 621.811 505.503 621.811 514.058C621.811 522.614 614.876 529.549 606.32 529.549C597.766 529.549 590.83 522.614 590.83 514.058C590.83 505.503 597.766 498.568 606.32 498.568ZM606.32 502.011C599.667 502.011 594.273 507.404 594.273 514.058C594.273 520.713 599.667 526.106 606.32 526.106C612.975 526.106 618.369 520.712 618.369 514.058C618.369 507.404 612.975 502.011 606.32 502.011ZM629.08 527.58C626.815 527.58 626.815 524.138 629.08 524.138H637.166C639.43 524.138 639.43 527.58 637.166 527.58H629.08ZM627.761 522.336C625.576 522.92 624.689 519.599 626.873 519.015L637.373 516.201C639.558 515.618 640.445 518.94 638.261 519.523L627.761 522.336ZM615.809 567.201C615.188 567.561 614.38 567.503 613.813 567.001L612.583 565.912L595.017 559.487C594.197 559.191 593.72 558.314 593.94 557.452L595.624 550.893L589.829 545.761C589.124 545.185 588.99 544.151 589.538 543.411L597.11 533.216C597.44 532.705 598.032 532.386 598.682 532.434L613.405 533.543L630.348 531.728C630.973 531.662 631.555 531.94 631.907 532.41L640.415 542.842C640.993 543.552 640.908 544.586 640.239 545.194L632.501 552.257L634.24 553.777C635.183 554.519 635.096 555.999 634.038 556.613C627.962 560.142 621.886 563.673 615.809 567.201ZM598.507 553.447L597.648 556.796L605.553 559.687L598.507 553.447ZM629.898 549.981L636.727 543.75L629.789 535.243L614.284 536.904L608.877 543.251L611.392 545.163L616.596 540.463C617.229 539.836 618.249 539.798 618.93 540.393L629.898 549.981Z" fill="white"/>
<circle cx="455" cy="778" r="66.5" fill="#0590DF" stroke="#0C78B4" stroke-width="7"/>
<path d="M454.722 753.513C450.524 753.513 446.326 755.145 443.177 758.294C440.029 761.442 438.396 765.641 438.396 769.839C438.396 774.037 440.029 778.235 443.177 781.384C446.326 784.532 450.524 786.165 454.722 786.165C458.92 786.165 463.119 784.532 466.267 781.384C469.416 778.235 471.048 774.037 471.048 769.839C471.048 765.641 469.416 761.442 466.267 758.294C463.119 755.145 458.92 753.513 454.722 753.513ZM464.635 779.751C461.952 782.433 458.337 783.832 454.722 783.832C451.107 783.832 447.609 782.433 444.81 779.751C442.128 777.069 440.729 773.454 440.729 769.839C440.729 766.224 442.128 762.725 444.81 759.926C447.492 757.244 451.107 755.845 454.722 755.845C458.337 755.845 461.836 757.244 464.635 759.926C467.317 762.609 468.716 766.224 468.716 769.839C468.716 773.454 467.317 776.952 464.635 779.751Z" fill="white"/>
<path d="M451.69 770.422L447.376 766.107L446.559 766.923L443.061 770.655L451.807 779.401L466.267 764.941L461.719 760.393L451.69 770.422ZM451.807 776.136L446.326 770.655L447.492 769.372L451.807 773.687L461.836 763.658L463.119 764.941L451.807 776.136Z" fill="white"/>
<path d="M479.561 767.04C479.445 766.34 479.211 765.874 478.978 765.291C478.512 764.591 477.929 764.008 477.579 763.425C477.112 762.959 476.762 762.376 476.646 762.026C476.529 761.792 476.529 761.443 476.529 760.976C476.529 760.393 476.529 759.81 476.529 759.11C476.529 758.294 476.413 757.361 475.946 756.428C475.596 755.845 475.13 755.495 474.663 755.145C473.964 754.679 473.264 754.446 472.564 754.096C471.981 753.863 471.398 753.513 471.165 753.28C470.815 752.93 470.465 752.113 469.999 751.181C469.766 750.714 469.532 750.248 469.299 749.781C468.949 749.315 468.599 748.848 468.016 748.498C467.2 748.032 466.267 748.032 465.334 748.032C464.635 748.032 464.051 748.032 463.468 748.032C463.002 748.032 462.652 748.032 462.419 747.915C461.952 747.799 461.253 747.216 460.553 746.516C460.203 746.166 459.737 745.816 459.27 745.583C458.804 745.233 458.221 745 457.521 745C457.404 745 457.288 745 457.171 745C456.588 745 456.005 745.117 455.539 745.35C454.722 745.583 454.139 745.933 453.556 746.283C452.973 746.633 452.507 746.749 452.157 746.866H451.924C451.457 746.866 450.874 746.749 450.174 746.516C449.475 746.283 448.658 746.05 447.725 746.05C447.376 746.05 446.909 746.05 446.443 746.283C445.86 746.516 445.277 746.866 444.927 747.216C444.344 747.799 443.877 748.498 443.527 749.082C443.061 749.665 442.711 750.131 442.361 750.248C442.128 750.364 441.895 750.481 441.545 750.481C440.962 750.597 440.262 750.714 439.446 750.947C438.629 751.181 437.813 751.414 437.113 752.113C436.647 752.58 436.414 753.163 436.181 753.629C435.947 754.446 435.831 755.262 435.714 755.962C435.597 756.661 435.481 757.245 435.248 757.478C435.014 757.944 434.315 758.411 433.498 758.994C433.149 759.344 432.682 759.577 432.216 760.043C431.866 760.393 431.399 760.976 431.283 761.559C431.166 762.026 431.05 762.376 431.05 762.842C431.05 763.775 431.283 764.591 431.516 765.291C431.749 765.991 431.866 766.69 431.866 767.04V767.273C431.866 767.74 431.516 768.44 431.05 769.256C430.816 769.722 430.583 770.072 430.35 770.655C430.117 771.122 430 771.705 430 772.288C430 772.404 430 772.521 430 772.638C430.117 773.337 430.35 773.804 430.583 774.387C431.05 775.087 431.633 775.67 431.982 776.253C432.449 776.719 432.799 777.302 432.915 777.652C433.032 777.885 433.032 778.235 433.032 778.702C433.032 779.285 433.032 779.868 433.032 780.567C433.032 781.384 433.149 782.317 433.615 783.25C433.965 783.833 434.431 784.182 434.898 784.532C435.597 784.999 436.297 785.232 436.997 785.582C437.58 785.815 438.163 786.165 438.396 786.398C438.746 786.748 439.096 787.564 439.562 788.497C439.796 788.964 440.029 789.43 440.262 789.897C440.612 790.363 440.962 790.829 441.545 791.179C441.661 791.296 441.895 791.296 442.011 791.413L437.113 805.989L444.81 803.54L449.475 810.188L454.839 794.211C454.839 794.211 454.956 794.211 454.956 794.095L460.32 810.071L464.984 803.424L472.681 805.873L467.2 789.547L467.317 789.43C467.55 789.314 467.783 789.197 468.25 789.08C468.833 788.964 469.532 788.847 470.349 788.614C471.165 788.381 471.981 788.147 472.681 787.448C473.147 786.981 473.381 786.398 473.614 785.932C473.847 785.115 473.964 784.299 474.08 783.599C474.197 782.9 474.314 782.317 474.547 782.083C474.78 781.617 475.48 781.15 476.296 780.567C476.646 780.218 477.112 779.984 477.579 779.518C477.929 779.168 478.395 778.585 478.512 778.002C478.628 777.535 478.745 777.186 478.745 776.719C478.745 775.786 478.512 774.97 478.278 774.27C478.045 773.571 477.929 772.871 477.929 772.521V772.288C477.929 771.821 478.278 771.122 478.745 770.305C478.978 769.839 479.211 769.489 479.445 768.906C479.678 768.44 479.794 767.856 479.794 767.273C479.678 767.273 479.561 767.157 479.561 767.04ZM448.542 804.94L445.626 800.742L440.729 802.258L444.344 791.646C444.927 791.646 445.626 791.646 446.093 791.646C446.559 791.646 446.909 791.646 447.142 791.762C447.609 791.879 448.308 792.462 449.008 793.162C449.358 793.512 449.824 793.861 450.291 794.095C450.757 794.445 451.34 794.678 452.04 794.678L448.542 804.94ZM463.818 800.742L460.903 804.94L456.938 793.045C457.055 793.045 457.288 792.929 457.404 792.929H457.638C458.104 792.929 458.687 793.045 459.387 793.278C460.087 793.512 460.903 793.745 461.836 793.745C462.186 793.745 462.652 793.745 463.119 793.512C463.702 793.278 464.285 792.929 464.635 792.579C464.868 792.345 465.101 791.996 465.334 791.762L468.833 802.374L463.818 800.742ZM477.112 768.206C476.879 768.673 476.646 769.256 476.296 769.956C475.946 770.655 475.596 771.355 475.48 772.171C475.48 772.288 475.48 772.521 475.48 772.638C475.48 773.571 475.713 774.387 475.946 775.087C476.179 775.786 476.296 776.486 476.296 776.836C476.296 777.069 476.296 777.186 476.179 777.302C476.063 777.535 475.946 777.652 475.713 777.885C475.363 778.235 474.78 778.702 474.197 779.051C473.614 779.518 472.914 779.984 472.448 780.801C472.098 781.267 471.981 781.85 471.865 782.317C471.631 783.133 471.631 783.833 471.398 784.416C471.282 784.999 471.048 785.465 470.815 785.698C470.698 785.815 470.465 785.932 470.115 786.048C469.649 786.282 468.949 786.282 468.25 786.515C467.55 786.631 466.734 786.865 465.917 787.331C464.868 788.031 464.285 788.964 463.702 789.663C463.468 790.013 463.119 790.363 462.885 790.596C462.652 790.829 462.419 790.946 462.302 791.063C462.186 791.063 462.069 791.179 461.836 791.179C461.369 791.179 460.786 791.063 460.087 790.829C459.387 790.596 458.571 790.363 457.638 790.363C457.521 790.363 457.288 790.363 457.171 790.363C456.005 790.48 455.072 791.063 454.256 791.529C453.906 791.762 453.44 791.879 453.206 792.112C452.856 792.229 452.623 792.345 452.39 792.345H452.273C452.04 792.345 451.807 792.229 451.574 792.112C451.107 791.879 450.641 791.413 450.058 790.829C449.475 790.363 448.775 789.78 447.959 789.547C447.259 789.314 446.676 789.314 446.093 789.314C445.393 789.314 444.693 789.43 444.227 789.314C443.527 789.314 443.061 789.197 442.828 789.08C442.711 788.964 442.478 788.847 442.361 788.497C442.128 788.031 441.778 787.448 441.545 786.748C441.195 786.048 440.845 785.232 440.262 784.649C439.329 783.833 438.28 783.366 437.463 783.016C436.997 782.783 436.647 782.666 436.414 782.433C436.181 782.2 435.947 782.083 435.831 781.967C435.714 781.734 435.597 781.267 435.597 780.567C435.597 779.984 435.597 779.401 435.597 778.702C435.597 778.119 435.597 777.535 435.364 776.836C434.898 775.67 434.198 774.853 433.498 774.154C433.149 773.804 432.915 773.454 432.799 773.221C432.566 772.871 432.566 772.638 432.566 772.521V772.404C432.566 772.171 432.566 771.938 432.799 771.588C433.032 771.122 433.265 770.539 433.615 769.839C433.965 769.139 434.315 768.44 434.431 767.623C434.431 767.507 434.431 767.273 434.431 767.157C434.431 766.224 434.198 765.408 433.965 764.708C433.732 764.008 433.615 763.308 433.615 762.959C433.615 762.725 433.615 762.609 433.732 762.492C433.848 762.259 433.965 762.142 434.198 761.909C434.548 761.559 435.131 761.093 435.714 760.743C436.297 760.276 436.997 759.81 437.463 758.994C437.813 758.527 437.93 757.944 438.046 757.478C438.28 756.661 438.28 755.962 438.513 755.379C438.629 754.796 438.863 754.329 439.096 754.096C439.213 753.979 439.446 753.863 439.796 753.746C440.262 753.513 440.962 753.513 441.661 753.28C442.361 753.163 443.177 752.93 443.994 752.463C445.043 751.764 445.626 750.831 446.209 750.131C446.443 749.781 446.792 749.431 447.026 749.198C447.259 748.965 447.492 748.848 447.609 748.732C447.725 748.732 447.842 748.615 448.075 748.615C448.542 748.615 449.125 748.732 449.824 748.965C450.524 749.198 451.34 749.431 452.273 749.431C452.39 749.431 452.623 749.431 452.74 749.431C453.906 749.315 454.839 748.732 455.655 748.265C456.005 748.032 456.471 747.915 456.705 747.682C457.055 747.566 457.288 747.449 457.521 747.449H457.638C457.871 747.449 458.104 747.566 458.337 747.682C458.804 747.915 459.27 748.382 459.853 748.965C460.436 749.431 461.136 750.014 461.952 750.248C462.302 750.364 462.885 750.364 463.468 750.364C464.168 750.364 464.868 750.248 465.334 750.364C466.034 750.364 466.5 750.481 466.734 750.597C466.85 750.714 467.083 750.831 467.2 751.181C467.433 751.647 467.783 752.23 468.016 752.93C468.366 753.629 468.716 754.446 469.299 755.029C470.232 755.845 471.282 756.312 472.098 756.661C472.564 756.895 472.914 757.011 473.147 757.245C473.381 757.478 473.614 757.594 473.73 757.711C473.847 757.944 473.964 758.411 473.964 759.11C473.964 759.693 473.964 760.276 473.964 760.976C473.964 761.559 473.964 762.142 474.197 762.842C474.663 764.008 475.363 764.824 476.063 765.524C476.413 765.874 476.646 766.224 476.762 766.457C476.996 766.807 476.996 767.04 476.996 767.157V767.273C477.345 767.623 477.229 767.856 477.112 768.206Z" fill="white"/>
<defs>
<filter id="filter0_d_506_83" x="535" y="468" width="440" height="140" filterUnits="userSpaceOnUse" color-interpolation-filters="sRGB">
<feFlood flood-opacity="0" result="BackgroundImageFix"/>
<feColorMatrix in="SourceAlpha" type="matrix" values="0 0 0 0 0 0 0 0 0 0 0 0 0 0 0 0 0 0 127 0" result="hardAlpha"/>
<feOffset dy="5"/>
<feGaussianBlur stdDeviation="10"/>
<feComposite in2="hardAlpha" operator="out"/>
<feColorMatrix type="matrix" values="0 0 0 0 0.839216 0 0 0 0 0.858824 0 0 0 0 0.882353 0 0 0 0.2 0"/>
<feBlend mode="normal" in2="BackgroundImageFix" result="effect1_dropShadow_506_83"/>
<feBlend mode="normal" in="SourceGraphic" in2="effect1_dropShadow_506_83" result="shape"/>
</filter>
<filter id="filter1_d_506_83" x="375" y="713" width="440" height="140" filterUnits="userSpaceOnUse" color-interpolation-filters="sRGB">
<feFlood flood-opacity="0" result="BackgroundImageFix"/>
<feColorMatrix in="SourceAlpha" type="matrix" values="0 0 0 0 0 0 0 0 0 0 0 0 0 0 0 0 0 0 127 0" result="hardAlpha"/>
<feOffset dy="5"/>
<feGaussianBlur stdDeviation="10"/>
<feComposite in2="hardAlpha" operator="out"/>
<feColorMatrix type="matrix" values="0 0 0 0 0.839216 0 0 0 0 0.858824 0 0 0 0 0.882353 0 0 0 0.2 0"/>
<feBlend mode="normal" in2="BackgroundImageFix" result="effect1_dropShadow_506_83"/>
<feBlend mode="normal" in="SourceGraphic" in2="effect1_dropShadow_506_83" result="shape"/>
</filter>
<filter id="filter2_d_506_83" x="535" y="240" width="440" height="140" filterUnits="userSpaceOnUse" color-interpolation-filters="sRGB">
<feFlood flood-opacity="0" result="BackgroundImageFix"/>
<feColorMatrix in="SourceAlpha" type="matrix" values="0 0 0 0 0 0 0 0 0 0 0 0 0 0 0 0 0 0 127 0" result="hardAlpha"/>
<feOffset dy="5"/>
<feGaussianBlur stdDeviation="10"/>
<feComposite in2="hardAlpha" operator="out"/>
<feColorMatrix type="matrix" values="0 0 0 0 0.839216 0 0 0 0 0.858824 0 0 0 0 0.882353 0 0 0 0.2 0"/>
<feBlend mode="normal" in2="BackgroundImageFix" result="effect1_dropShadow_506_83"/>
<feBlend mode="normal" in="SourceGraphic" in2="effect1_dropShadow_506_83" result="shape"/>
</filter>
<filter id="filter3_d_506_83" x="375" y="5" width="440" height="140" filterUnits="userSpaceOnUse" color-interpolation-filters="sRGB">
<feFlood flood-opacity="0" result="BackgroundImageFix"/>
<feColorMatrix in="SourceAlpha" type="matrix" values="0 0 0 0 0 0 0 0 0 0 0 0 0 0 0 0 0 0 127 0" result="hardAlpha"/>
<feOffset dy="5"/>
<feGaussianBlur stdDeviation="10"/>
<feComposite in2="hardAlpha" operator="out"/>
<feColorMatrix type="matrix" values="0 0 0 0 0.839216 0 0 0 0 0.858824 0 0 0 0 0.882353 0 0 0 0.2 0"/>
<feBlend mode="normal" in2="BackgroundImageFix" result="effect1_dropShadow_506_83"/>
<feBlend mode="normal" in="SourceGraphic" in2="effect1_dropShadow_506_83" result="shape"/>
</filter>
<linearGradient id="paint0_linear_506_83" x1="925" y1="522" x2="925" y2="541" gradientUnits="userSpaceOnUse">
<stop stop-color="#F73454"/>
<stop offset="1" stop-color="#CD223E"/>
</linearGradient>
<linearGradient id="paint1_linear_506_83" x1="765" y1="770.5" x2="765" y2="786" gradientUnits="userSpaceOnUse">
<stop stop-color="#0590DE"/>
<stop offset="1" stop-color="#0B77B4"/>
</linearGradient>
<linearGradient id="paint2_linear_506_83" x1="925" y1="292.5" x2="925" y2="313.5" gradientUnits="userSpaceOnUse">
<stop stop-color="#1EB59A"/>
<stop offset="1" stop-color="#0D8670"/>
</linearGradient>
<linearGradient id="paint3_linear_506_83" x1="767.5" y1="59.5" x2="765" y2="75" gradientUnits="userSpaceOnUse">
<stop stop-color="#F4911D"/>
<stop offset="1" stop-color="#CA7613"/>
</linearGradient>
<clipPath id="clip0_506_83">
<rect width="100" height="100" fill="white" transform="translate(175 323)"/>
</clipPath>
</defs>
</svg>
