<svg width="18" height="18" viewBox="0 0 18 18" fill="none" xmlns="http://www.w3.org/2000/svg">
<path d="M12.3749 5.0625C12.3222 5.1148 12.2804 5.17701 12.2518 5.24556C12.2233 5.3141 12.2086 5.38762 12.2086 5.46188C12.2086 5.53614 12.2233 5.60966 12.2518 5.6782C12.2804 5.74675 12.3222 5.80896 12.3749 5.86125L14.9624 8.44875H1.72119C1.57201 8.44875 1.42893 8.50802 1.32344 8.61351C1.21795 8.719 1.15869 8.86207 1.15869 9.01125C1.15869 9.16044 1.21795 9.30351 1.32344 9.409C1.42893 9.51449 1.57201 9.57375 1.72119 9.57375H14.9512L12.3749 12.1444C12.2702 12.2498 12.2114 12.3923 12.2114 12.5409C12.2114 12.6895 12.2702 12.8321 12.3749 12.9375C12.4803 13.0423 12.6229 13.1011 12.7715 13.1011C12.9201 13.1011 13.0627 13.0423 13.1681 12.9375L16.7456 9.36C16.7937 9.31381 16.832 9.25835 16.8582 9.19697C16.8844 9.13559 16.8979 9.06955 16.8979 9.00282C16.8979 8.93609 16.8844 8.87005 16.8582 8.80867C16.832 8.74728 16.7937 8.69183 16.7456 8.64563L13.1737 5.0625C13.1214 5.00978 13.0592 4.96794 12.9906 4.93938C12.9221 4.91082 12.8486 4.89612 12.7743 4.89612C12.7001 4.89612 12.6265 4.91082 12.558 4.93938C12.4894 4.96794 12.4272 5.00978 12.3749 5.0625Z" fill="#17365E"/>
</svg>
