<svg width="16" height="18" viewBox="0 0 16 18" fill="none" xmlns="http://www.w3.org/2000/svg">
<path fill-rule="evenodd" clip-rule="evenodd" d="M11.0096 16.1247H5.44435C3.40011 16.1247 1.83184 15.2941 2.2773 11.9508L2.79599 7.41992C3.07059 5.75173 4.01643 5.11328 4.84633 5.11328H11.632C12.4741 5.11328 13.365 5.79978 13.6823 7.41992L14.201 11.9508C14.5794 14.9165 13.0538 16.1247 11.0096 16.1247Z" stroke="black" stroke-width="1.5" stroke-linecap="round" stroke-linejoin="round"/>
<path d="M11.1008 4.94831C11.1008 3.15876 9.81129 1.70804 8.22057 1.70804V1.70804C7.45457 1.70439 6.71883 2.04416 6.17604 2.65222C5.63325 3.26029 5.32812 4.08655 5.32813 4.94831H5.32812" stroke="black" stroke-width="1.5" stroke-linecap="round" stroke-linejoin="round"/>
<path d="M10.1973 8.32567H10.1668" stroke="black" stroke-width="1.5" stroke-linecap="round" stroke-linejoin="round"/>
<path d="M6.3106 8.32567H6.28009" stroke="black" stroke-width="1.5" stroke-linecap="round" stroke-linejoin="round"/>
</svg>
