<svg width="27" height="27" viewBox="0 0 27 27" fill="none" xmlns="http://www.w3.org/2000/svg">
<g filter="url(#filter0_d_38_10)">
<path d="M20.3437 12.3749L16.6797 10.8124C16.4906 10.7277 16.2831 10.6926 16.0767 10.7103C15.8703 10.7281 15.6718 10.7982 15.5 10.914L13.5391 12.2187C12.3439 11.6382 11.3763 10.6761 10.7891 9.48432L12.0859 7.49994C12.201 7.32797 12.2712 7.12999 12.2903 6.92398C12.3094 6.71797 12.2768 6.51045 12.1953 6.32026L10.625 2.6562C10.5154 2.40878 10.3299 2.20271 10.0953 2.06785C9.8607 1.933 9.58925 1.87638 9.32031 1.9062C8.26531 2.0444 7.29638 2.56102 6.59369 3.35999C5.891 4.15896 5.50235 5.18593 5.5 6.24995C5.5 12.4531 10.5469 17.4999 16.75 17.4999C17.814 17.4976 18.841 17.1089 19.64 16.4063C20.4389 15.7036 20.9555 14.7346 21.0937 13.6796C21.1236 13.4107 21.0669 13.1392 20.9321 12.9046C20.7972 12.6701 20.5912 12.4845 20.3437 12.3749Z" fill="white"/>
<path d="M15.2968 3.72672C16.2482 3.98663 17.1153 4.4901 17.8126 5.18746C18.51 5.88481 19.0135 6.75194 19.2734 7.70328C19.3079 7.83685 19.3856 7.95526 19.4944 8.04004C19.6032 8.12483 19.737 8.17124 19.8749 8.17203C19.9305 8.17193 19.9857 8.16404 20.039 8.1486C20.1185 8.12781 20.193 8.09137 20.2582 8.04143C20.3233 7.99148 20.3779 7.92902 20.4187 7.85772C20.4594 7.78642 20.4855 7.7077 20.4954 7.62618C20.5054 7.54466 20.4989 7.46197 20.4765 7.38297C20.164 6.21788 19.5505 5.15552 18.6975 4.30256C17.8446 3.4496 16.7822 2.83607 15.6171 2.5236C15.5356 2.4939 15.4488 2.4815 15.3622 2.48719C15.2756 2.49288 15.1912 2.51653 15.1142 2.55665C15.0373 2.59676 14.9696 2.65246 14.9153 2.72019C14.8611 2.78792 14.8216 2.8662 14.7992 2.95004C14.7769 3.03389 14.7723 3.12147 14.7857 3.2072C14.799 3.29293 14.8301 3.37494 14.8769 3.448C14.9237 3.52106 14.9853 3.58357 15.0575 3.63156C15.1298 3.67954 15.2113 3.71195 15.2968 3.72672Z" fill="white"/>
<path d="M14.6484 6.14078C15.1772 6.28554 15.6592 6.56555 16.0469 6.95323C16.4346 7.34092 16.7146 7.82291 16.8593 8.35172C16.8926 8.48595 16.97 8.60513 17.079 8.69013C17.1881 8.77513 17.3226 8.82103 17.4609 8.82047C17.5139 8.82099 17.5666 8.81308 17.6171 8.79703C17.6973 8.7771 17.7726 8.74128 17.8387 8.6917C17.9047 8.64212 17.9602 8.57979 18.0017 8.50839C18.0432 8.437 18.07 8.35799 18.0804 8.27606C18.0909 8.19413 18.0848 8.11093 18.0624 8.03141C17.8651 7.28884 17.4751 6.6116 16.9318 6.06831C16.3885 5.52501 15.7113 5.13496 14.9687 4.93766C14.8872 4.90796 14.8004 4.89556 14.7138 4.90125C14.6272 4.90694 14.5427 4.93059 14.4658 4.97071C14.3889 5.01082 14.3211 5.06652 14.2669 5.13425C14.2127 5.20198 14.1731 5.28026 14.1508 5.36411C14.1285 5.44795 14.1239 5.53553 14.1372 5.62126C14.1506 5.70699 14.1817 5.789 14.2285 5.86206C14.2753 5.93512 14.3368 5.99763 14.4091 6.04562C14.4814 6.09361 14.5629 6.12602 14.6484 6.14078Z" fill="white"/>
</g>
<defs>
<filter id="filter0_d_38_10" x="0.5" y="0.898438" width="25.6016" height="25.6016" filterUnits="userSpaceOnUse" color-interpolation-filters="sRGB">
<feFlood flood-opacity="0" result="BackgroundImageFix"/>
<feColorMatrix in="SourceAlpha" type="matrix" values="0 0 0 0 0 0 0 0 0 0 0 0 0 0 0 0 0 0 127 0" result="hardAlpha"/>
<feOffset dy="4"/>
<feGaussianBlur stdDeviation="2.5"/>
<feComposite in2="hardAlpha" operator="out"/>
<feColorMatrix type="matrix" values="0 0 0 0 0 0 0 0 0 0 0 0 0 0 0 0 0 0 0.1 0"/>
<feBlend mode="normal" in2="BackgroundImageFix" result="effect1_dropShadow_38_10"/>
<feBlend mode="normal" in="SourceGraphic" in2="effect1_dropShadow_38_10" result="shape"/>
</filter>
</defs>
</svg>
