<svg width="50" height="51" viewBox="0 0 50 51" fill="none" xmlns="http://www.w3.org/2000/svg">
<path d="M1.10348 18.0449C2.93141 12.0982 6.91093 7.04671 12.2645 3.87745C17.618 0.708185 23.9609 -0.351122 30.0537 0.906504C36.1466 2.16413 41.5516 5.64833 45.2127 10.6783C48.8739 15.7083 50.528 21.9226 49.852 28.1071C49.1759 34.2915 46.2182 40.0017 41.5569 44.1219C36.8955 48.2421 30.8653 50.4763 24.6447 50.3879C18.424 50.2994 12.4598 47.8948 7.91742 43.6437C3.37503 39.3927 0.580864 33.6008 0.0808692 27.3996L1.32683 27.2991C1.80182 33.1902 4.45628 38.6926 8.77155 42.7311C13.0868 46.7696 18.7528 49.054 24.6624 49.138C30.5721 49.222 36.3007 47.0995 40.729 43.1853C45.1573 39.2711 47.9671 33.8465 48.6094 27.9712C49.2516 22.096 47.6802 16.1924 44.2021 11.4139C40.724 6.63543 35.5892 3.32544 29.801 2.1307C24.0128 0.935953 17.9871 1.94229 12.9012 4.95309C7.81538 7.96389 4.03484 12.7628 2.2983 18.4122L1.10348 18.0449Z" fill="#17365E"/>
<path d="M14.7291 24.8904C14.453 24.8904 14.2291 25.1142 14.2291 25.3904C14.2291 25.6665 14.453 25.8904 14.7291 25.8904L14.7291 24.8904ZM34.7291 25.3904L29.7291 22.5036L29.7291 28.2771L34.7291 25.3904ZM14.7291 25.8904L30.2291 25.8904L30.2291 24.8904L14.7291 24.8904L14.7291 25.8904Z" fill="#17365E"/>
</svg>
