<svg width="20" height="21" viewBox="0 0 20 21" fill="none" xmlns="http://www.w3.org/2000/svg">
<path d="M16.1032 8.67578C16.1032 8.67578 15.6507 14.2883 15.3882 16.6524C15.2632 17.7816 14.5657 18.4433 13.4232 18.4641C11.249 18.5033 9.07234 18.5058 6.89901 18.4599C5.79984 18.4374 5.11401 17.7674 4.99151 16.6583C4.72734 14.2733 4.27734 8.67578 4.27734 8.67578" stroke="#200E32" stroke-width="1.5" stroke-linecap="round" stroke-linejoin="round"/>
<path d="M17.2567 5.986H3.125" stroke="#200E32" stroke-width="1.5" stroke-linecap="round" stroke-linejoin="round"/>
<path d="M14.5335 5.98562C13.8793 5.98562 13.316 5.52312 13.1877 4.88229L12.9852 3.86896C12.8602 3.40146 12.4368 3.07812 11.9543 3.07812H8.42682C7.94432 3.07812 7.52099 3.40146 7.39599 3.86896L7.19349 4.88229C7.06516 5.52312 6.50182 5.98562 5.84766 5.98562" stroke="#200E32" stroke-width="1.5" stroke-linecap="round" stroke-linejoin="round"/>
</svg>
