<svg width="45" height="45" viewBox="0 0 45 45" fill="none" xmlns="http://www.w3.org/2000/svg">
<rect x="0.5" y="0.5" width="44" height="44" rx="22" fill="#FCFCFD"/>
<g clip-path="url(#clip0_1_20)">
<path d="M11.2998 31.8746H33.7002C34.4203 31.8323 35 31.2069 35 30.4497V15.2412C35 14.4606 34.3886 13.821 33.6368 13.8163H11.3632C10.6114 13.821 10 14.4606 10 15.2412V30.445C10 31.2069 10.5797 31.8323 11.2998 31.8746Z" fill="#FEFEFE"/>
<path d="M20.7518 24.6466V31.8746H24.2301V24.6466H35V21.0349H24.2301V13.8163H20.7518V21.0349H10V24.6466H20.7518Z" fill="#C8102E"/>
<path d="M25.3895 19.6618V13.8163H33.6458C34.2165 13.8257 34.7056 14.1972 34.9049 14.7192L25.3895 19.6618Z" fill="#012169"/>
<path d="M25.3895 26.0292V31.8746H33.7002C34.2482 31.8417 34.7101 31.4749 34.9049 30.9717L25.3895 26.0292Z" fill="#012169"/>
<path d="M19.5924 26.0292V31.8746H11.2998C10.7518 31.8417 10.2853 31.4749 10.0951 30.9623L19.5924 26.0292Z" fill="#012169"/>
<path d="M19.5924 19.6618V13.8163H11.3542C10.7835 13.8257 10.2898 14.2019 10.0951 14.7286L19.5924 19.6618Z" fill="#012169"/>
<path d="M10 19.8358H13.4647L10 18.0346V19.8358Z" fill="#012169"/>
<path d="M35 19.8358H31.5172L35 18.0252V19.8358Z" fill="#012169"/>
<path d="M35 25.8552H31.5172L35 27.6657V25.8552Z" fill="#012169"/>
<path d="M10 25.8552H13.4647L10 27.6563V25.8552Z" fill="#012169"/>
<path d="M35 15.3447L26.3723 19.8358H28.3016L35 16.3558V15.3447Z" fill="#C8102E"/>
<path d="M18.6096 25.8552H16.6803L10 29.3258V30.3369L18.6277 25.8552H18.6096Z" fill="#C8102E"/>
<path d="M14.7645 19.8405H16.6938L10 16.3605V17.3668L14.7645 19.8405Z" fill="#C8102E"/>
<path d="M30.2129 25.8505H28.2835L35 29.3446V28.3382L30.2129 25.8505Z" fill="#C8102E"/>
</g>
<rect x="0.5" y="0.5" width="44" height="44" rx="22" stroke="#CCCCCC"/>
<defs>
<clipPath id="clip0_1_20">
<rect x="10" y="13.8163" width="25" height="18.0583" rx="3" fill="white"/>
</clipPath>
</defs>
</svg>
