<svg width="12" height="20" viewBox="0 0 12 20" fill="none" xmlns="http://www.w3.org/2000/svg">
<path fill-rule="evenodd" clip-rule="evenodd" d="M5.35147 1.12109C6.16765 0.644541 7.22594 0.350098 8.58525 0.350098H8.59257L8.59989 0.350262C9.33103 0.366728 10.0604 0.429175 10.7837 0.537232L11.3377 0.619991V4.8703H9.36034L9.35654 4.87042L9.31689 4.87188C9.28192 4.87327 9.2309 4.87554 9.16852 4.87898C9.04304 4.88592 8.87498 4.89745 8.70073 4.91578C8.52358 4.93442 8.35437 4.95863 8.22157 4.9883C8.16129 5.00177 8.11853 5.01419 8.09122 5.02383C8.07694 5.03609 8.06358 5.04733 8.05223 5.05687C8.04839 5.06009 8.04467 5.06322 8.04104 5.06627C8.01806 5.08557 7.99876 5.10177 7.97857 5.11938C7.93302 5.15911 7.89928 5.19214 7.87312 5.22362C7.82712 5.27899 7.81325 5.31703 7.81325 5.3669V7.4367H11.2546L10.755 12.0901H7.81325V19.6501H2.98345V12.0901H0.000854492V7.4349H2.98345V5.3718L2.98332 5.35751C2.98326 5.34507 2.9833 5.3285 2.98361 5.30805C2.98423 5.26718 2.98592 5.21072 2.99005 5.14086C2.99831 5.00139 3.01638 4.80711 3.05553 4.57601C3.13337 4.11653 3.29724 3.49551 3.64568 2.86797C3.99658 2.23598 4.53489 1.59786 5.35147 1.12109ZM9.35026 4.2203L9.33225 3.57055L9.34125 3.5703H10.0377V1.74998C9.55296 1.69465 9.06591 1.66131 8.578 1.6501C7.41395 1.65114 6.59188 1.90221 6.00695 2.24373C5.42122 2.58573 5.03748 3.03931 4.78223 3.49903C4.52452 3.96319 4.39814 4.43387 4.33727 4.79316C4.30706 4.97145 4.29366 5.11832 4.28778 5.21766C4.28485 5.26721 4.28381 5.30456 4.28346 5.32766L4.28331 5.35123L4.28332 5.35379L4.28345 5.35926V8.7349H1.30085V10.7901H4.28345V18.3501H6.51326V10.7901H9.5871L9.80754 8.7367H6.51326V5.3669C6.51326 4.59383 7.1151 4.1345 7.24144 4.03808C7.25233 4.02977 7.25969 4.02415 7.26282 4.02126L7.27189 4.0129L7.28128 4.00489C7.4004 3.90322 7.53386 3.84433 7.62706 3.8094C7.72912 3.77115 7.8369 3.7422 7.93807 3.71959C8.14058 3.67434 8.36545 3.64388 8.56472 3.62291C8.7669 3.60165 8.95761 3.58865 9.09679 3.58096C9.16673 3.5771 9.22452 3.57453 9.26526 3.57291L9.31319 3.57114L9.32655 3.57071L9.33038 3.5706L9.33225 3.57055C9.33232 3.57055 9.33225 3.57055 9.35026 4.2203Z" fill="#CCCCCC"/>
</svg>
