<svg width="24" height="25" viewBox="0 0 24 25" fill="none" xmlns="http://www.w3.org/2000/svg">
<path d="M19.998 12.2285C19.998 16.6456 16.4171 20.2265 12 20.2265M19.998 12.2285C19.998 7.8113 16.4171 4.23047 12 4.23047M19.998 12.2285H4.00195M12 20.2265C7.58278 20.2265 4.00195 16.6456 4.00195 12.2285M12 20.2265C13.7943 20.2265 15.249 16.6456 15.249 12.2285C15.249 7.8113 13.7943 4.23047 12 4.23047M12 20.2265C10.2056 20.2265 8.75095 16.6456 8.75095 12.2285C8.75095 7.8113 10.2056 4.23047 12 4.23047M4.00195 12.2285C4.00195 7.8113 7.58278 4.23047 12 4.23047" stroke="black" stroke-width="1.5" stroke-miterlimit="10" stroke-linecap="round" stroke-linejoin="round"/>
</svg>
