<svg width="50" height="51" viewBox="0 0 50 51" fill="none" xmlns="http://www.w3.org/2000/svg">
<path d="M48.8965 18.0449C47.0686 12.0982 43.0891 7.04671 37.7355 3.87745C32.382 0.708185 26.0391 -0.351122 19.9463 0.906504C13.8534 2.16413 8.44838 5.64833 4.78725 10.6783C1.12613 15.7083 -0.528014 21.9226 0.148039 28.1071C0.824095 34.2915 3.78176 40.0017 8.44314 44.1219C13.1045 48.2421 19.1347 50.4763 25.3553 50.3879C31.576 50.2994 37.5402 47.8948 42.0826 43.6437C46.625 39.3927 49.4191 33.6008 49.9191 27.3996L48.6732 27.2991C48.1982 33.1902 45.5437 38.6926 41.2285 42.7311C36.9132 46.7696 31.2472 49.054 25.3376 49.138C19.4279 49.222 13.6993 47.0995 9.27098 43.1853C4.84267 39.2711 2.03289 33.8465 1.39064 27.9712C0.748388 22.096 2.31982 16.1924 5.79789 11.4139C9.27596 6.63543 14.4108 3.32544 20.199 2.1307C25.9872 0.935953 32.0129 1.94229 37.0988 4.95309C42.1846 7.96389 45.9652 12.7628 47.7017 18.4122L48.8965 18.0449Z" fill="#17365E"/>
<path d="M35.2709 24.8904C35.547 24.8904 35.7709 25.1142 35.7709 25.3904C35.7709 25.6665 35.547 25.8904 35.2709 25.8904L35.2709 24.8904ZM15.2709 25.3904L20.2709 22.5036L20.2709 28.2771L15.2709 25.3904ZM35.2709 25.8904L19.7709 25.8904L19.7709 24.8904L35.2709 24.8904L35.2709 25.8904Z" fill="#17365E"/>
</svg>
