<svg width="20" height="22" viewBox="0 0 20 22" fill="none" xmlns="http://www.w3.org/2000/svg">
<path fill-rule="evenodd" clip-rule="evenodd" d="M10.1995 18.5886C12.0083 17.3978 13.6911 15.9963 15.2176 14.4092C16.2908 13.2662 17.1078 11.8728 17.6061 10.3357C18.5027 7.35391 17.4554 3.94034 14.5244 2.93012C12.984 2.39967 11.3016 2.70285 10.0036 3.74482C8.70505 2.70411 7.02327 2.40104 5.48277 2.93012C2.55178 3.94034 1.49693 7.35391 2.39355 10.3357C2.89181 11.8728 3.70884 13.2662 4.78205 14.4092C6.30856 15.9963 7.9913 17.3978 9.80015 18.5886L9.99605 18.7189L10.1995 18.5886Z" fill="#EF3F27"/>
<path d="M6.88379 6.28711C5.99603 6.59045 5.36526 7.44298 5.28644 8.44605" stroke="white" stroke-linecap="round" stroke-linejoin="round"/>
</svg>
