<svg width="21" height="22" viewBox="0 0 21 22" fill="none" xmlns="http://www.w3.org/2000/svg">
<path fill-rule="evenodd" clip-rule="evenodd" d="M10.3114 18.5886C12.1101 17.3978 13.7833 15.9963 15.3012 14.4092C16.3683 13.2662 17.1808 11.8728 17.6762 10.3357C18.5678 7.35391 17.5264 3.94034 14.6119 2.93012C13.0802 2.39967 11.4074 2.70285 10.1166 3.74482C8.82545 2.70411 7.15318 2.40104 5.62138 2.93012C2.70695 3.94034 1.65805 7.35391 2.54961 10.3357C3.04506 11.8728 3.85747 13.2662 4.92461 14.4092C6.44251 15.9963 8.11574 17.3978 9.91436 18.5886L10.1092 18.7189L10.3114 18.5886Z" stroke="#BDBDBD" stroke-linecap="round" stroke-linejoin="round"/>
<path d="M7.01465 6.28711C6.13191 6.59045 5.5047 7.44298 5.42632 8.44605" stroke="#BDBDBD" stroke-width="0.5" stroke-linecap="round" stroke-linejoin="round"/>
</svg>
