<svg width="19" height="18" viewBox="0 0 19 18" fill="none" xmlns="http://www.w3.org/2000/svg">
<path d="M9.64846 4.38213C7.09303 4.38213 5.03068 6.44452 5.03068 9C5.03068 11.5555 7.09303 13.6179 9.64846 13.6179C12.2039 13.6179 14.2662 11.5555 14.2662 9C14.2662 6.44452 12.2039 4.38213 9.64846 4.38213ZM9.64846 12.0013C7.99587 12.0013 6.64724 10.6526 6.64724 9C6.64724 7.34738 7.99587 5.99872 9.64846 5.99872C11.301 5.99872 12.6497 7.34738 12.6497 9C12.6497 10.6526 11.301 12.0013 9.64846 12.0013ZM14.4554 3.11677C13.8587 3.11677 13.3769 3.5986 13.3769 4.19525C13.3769 4.79191 13.8587 5.27373 14.4554 5.27373C15.052 5.27373 15.5338 4.79416 15.5338 4.19525C15.534 4.05358 15.5062 3.91325 15.4521 3.78233C15.398 3.6514 15.3185 3.53244 15.2183 3.43226C15.1182 3.33208 14.9992 3.25264 14.8683 3.19851C14.7374 3.14437 14.597 3.1166 14.4554 3.11677ZM18.6499 9C18.6499 7.75716 18.6611 6.52558 18.5913 5.28499C18.5215 3.84402 18.1928 2.56515 17.1391 1.51144C16.0832 0.455477 14.8066 0.129006 13.3657 0.0592092C12.1228 -0.0105879 10.8913 0.000669702 9.65071 0.000669702C8.40789 0.000669702 7.17634 -0.0105879 5.93577 0.0592092C4.49482 0.129006 3.21598 0.457728 2.16229 1.51144C1.10635 2.5674 0.779883 3.84402 0.710087 5.28499C0.640291 6.52783 0.651549 7.75941 0.651549 9C0.651549 10.2406 0.640291 11.4744 0.710087 12.715C0.779883 14.156 1.1086 15.4348 2.16229 16.4886C3.21823 17.5445 4.49482 17.871 5.93577 17.9408C7.17859 18.0106 8.41014 17.9993 9.65071 17.9993C10.8935 17.9993 12.1251 18.0106 13.3657 17.9408C14.8066 17.871 16.0854 17.5423 17.1391 16.4886C18.1951 15.4326 18.5215 14.156 18.5913 12.715C18.6634 11.4744 18.6499 10.2428 18.6499 9ZM16.6686 14.3091C16.5042 14.7189 16.3061 15.0251 15.9886 15.3403C15.6712 15.6577 15.3672 15.8559 14.9574 16.0202C13.7732 16.4908 10.9611 16.385 9.64846 16.385C8.33585 16.385 5.5215 16.4908 4.33722 16.0225C3.92745 15.8581 3.62125 15.66 3.30604 15.3425C2.98858 15.0251 2.79045 14.7211 2.6261 14.3113C2.15779 13.1248 2.26361 10.3126 2.26361 9C2.26361 7.68736 2.15779 4.87296 2.6261 3.68866C2.79045 3.27888 2.98858 2.97268 3.30604 2.65746C3.6235 2.34225 3.92745 2.14187 4.33722 1.97751C5.5215 1.50919 8.33585 1.61501 9.64846 1.61501C10.9611 1.61501 13.7754 1.50919 14.9597 1.97751C15.3695 2.14187 15.6757 2.34 15.9909 2.65746C16.3083 2.97493 16.5065 3.27888 16.6708 3.68866C17.1391 4.87296 17.0333 7.68736 17.0333 9C17.0333 10.3126 17.1391 13.1248 16.6686 14.3091Z" fill="#FCD318"/>
</svg>
