<svg width="26" height="30" viewBox="0 0 26 30" fill="none" xmlns="http://www.w3.org/2000/svg">
<g filter="url(#filter0_d_34_72)">
<path d="M13 1C8.58208 1 5 4.3582 5 8.5C5 11.5238 6.12375 12.3684 12.1792 20.5977C12.5763 21.1355 13.4254 21.1355 13.8225 20.5977C19.875 12.3672 21 11.5234 21 8.5C21 4.3582 17.4167 1 13 1ZM13 11.5898C11.1613 11.5898 9.66667 10.1883 9.66667 8.46484C9.66667 6.74141 11.1625 5.33984 13 5.33984C14.8375 5.33984 16.3333 6.74141 16.3333 8.46484C16.3333 10.1883 14.8375 11.5898 13 11.5898Z" fill="white"/>
</g>
<defs>
<filter id="filter0_d_34_72" x="0" y="0" width="26" height="30.001" filterUnits="userSpaceOnUse" color-interpolation-filters="sRGB">
<feFlood flood-opacity="0" result="BackgroundImageFix"/>
<feColorMatrix in="SourceAlpha" type="matrix" values="0 0 0 0 0 0 0 0 0 0 0 0 0 0 0 0 0 0 127 0" result="hardAlpha"/>
<feOffset dy="4"/>
<feGaussianBlur stdDeviation="2.5"/>
<feComposite in2="hardAlpha" operator="out"/>
<feColorMatrix type="matrix" values="0 0 0 0 0 0 0 0 0 0 0 0 0 0 0 0 0 0 0.1 0"/>
<feBlend mode="normal" in2="BackgroundImageFix" result="effect1_dropShadow_34_72"/>
<feBlend mode="normal" in="SourceGraphic" in2="effect1_dropShadow_34_72" result="shape"/>
</filter>
</defs>
</svg>
