<svg width="45" height="45" viewBox="0 0 45 45" fill="none" xmlns="http://www.w3.org/2000/svg">
<rect x="0.5" y="0.5" width="44" height="44" rx="22" fill="#FCFCFD"/>
<path d="M35 28.2308C35 28.9652 34.7073 29.6696 34.1864 30.1889C33.6655 30.7082 32.9589 31 32.2222 31H12.7778C12.0411 31 11.3345 30.7082 10.8136 30.1889C10.2927 29.6696 10 28.9652 10 28.2308V25.4615H35V28.2308Z" fill="#CE2028"/>
<path d="M10 18.5384H35V25.4615H10V18.5384Z" fill="#22408C"/>
<path d="M32.2222 13H12.7778C12.0411 13 11.3345 13.2918 10.8136 13.8111C10.2927 14.3304 10 15.0348 10 15.7692V18.5385H35V15.7692C35 15.0348 34.7073 14.3304 34.1864 13.8111C33.6655 13.2918 32.9589 13 32.2222 13Z" fill="white"/>
<rect x="0.5" y="0.5" width="44" height="44" rx="22" stroke="#CCCCCC"/>
</svg>
