<svg width="50" height="51" viewBox="0 0 50 51" fill="none" xmlns="http://www.w3.org/2000/svg">
<path d="M48.8965 32.7359C47.0686 38.6826 43.0891 43.734 37.7355 46.9033C32.382 50.0726 26.0391 51.1319 19.9463 49.8743C13.8534 48.6166 8.44839 45.1324 4.78726 40.1025C1.12613 35.0725 -0.528008 28.8581 0.148045 22.6737C0.8241 16.4892 3.78176 10.779 8.44314 6.65884C13.1045 2.53864 19.1347 0.304481 25.3553 0.392906C31.576 0.481331 37.5402 2.88598 42.0826 7.13702C46.625 11.388 49.4191 17.18 49.9191 23.3812L48.6732 23.4816C48.1982 17.5905 45.5437 12.0882 41.2285 8.04969C36.9132 4.0112 31.2472 1.72678 25.3376 1.64278C19.4279 1.55878 13.6993 3.68123 9.27098 7.59542C4.84268 11.5096 2.03289 16.9343 1.39064 22.8095C0.748394 28.6848 2.31983 34.5884 5.7979 39.3669C9.27597 44.1453 14.4108 47.4553 20.199 48.6501C25.9872 49.8448 32.0129 48.8385 37.0988 45.8277C42.1846 42.8169 45.9652 38.018 47.7017 32.3686L48.8965 32.7359Z" fill="#BBBBBB"/>
<path d="M35 25.8906C35.2761 25.8906 35.5 25.6668 35.5 25.3906C35.5 25.1145 35.2761 24.8906 35 24.8906V25.8906ZM15 25.3906L20 28.2774V22.5039L15 25.3906ZM35 24.8906L19.5 24.8906V25.8906L35 25.8906V24.8906Z" fill="#BBBBBB"/>
</svg>
