<svg width="19" height="18" viewBox="0 0 19 18" fill="none" xmlns="http://www.w3.org/2000/svg">
<path d="M17.3183 0.001843C17.096 0.0198484 16.8778 0.0779083 16.6722 0.173758H16.6695C16.4721 0.260871 15.5338 0.700295 14.1073 1.36637L8.99554 3.76315C5.32754 5.4823 1.72187 7.17524 1.72187 7.17524L1.7648 7.15674C1.7648 7.15674 1.51621 7.2477 1.25653 7.44583C1.09611 7.55948 0.95806 7.70818 0.850746 7.88294C0.723332 8.09109 0.620847 8.40948 0.658933 8.73866C0.721255 9.29526 1.04533 9.62907 1.278 9.81332C1.51344 9.99988 1.7378 10.087 1.7378 10.087H1.74334L5.12465 11.3552C5.2763 11.8971 6.15504 15.1134 6.36624 15.8542C6.49089 16.2967 6.61207 16.5735 6.76372 16.7847C6.83712 16.8927 6.92299 16.9829 7.02616 17.0553C7.0798 17.0901 7.13699 17.1175 7.19651 17.137L7.16189 17.1278C7.17228 17.1309 7.18058 17.1401 7.1882 17.1432C7.2159 17.1517 7.2346 17.1548 7.26991 17.1609C7.80519 17.3413 8.23521 16.9713 8.23521 16.9713L8.25945 16.9497L10.2558 14.9261L13.6018 17.7838L13.678 17.8201C14.3753 18.1608 15.0816 17.9712 15.4549 17.6366C15.8309 17.2997 15.977 16.8688 15.977 16.8688L16.0012 16.7994L18.5869 2.05249C18.6603 1.68861 18.679 1.34787 18.598 1.01714C18.5144 0.682429 18.3215 0.394554 18.0572 0.209991C17.8352 0.0597504 17.5778 -0.012767 17.3183 0.001843ZM17.2484 1.58223C17.2456 1.63079 17.2539 1.6254 17.2345 1.71868V1.72716L14.6731 16.3206C14.662 16.3415 14.6433 16.3869 14.5921 16.4324C14.538 16.4802 14.4951 16.5103 14.2701 16.4108L10.1776 12.9178L7.70547 15.4264L8.22482 11.7337L14.9113 4.79541C15.1869 4.51017 15.0948 4.45004 15.0948 4.45004C15.1142 4.10004 14.6786 4.34751 14.6786 4.34751L6.24714 10.1625L6.24437 10.1471L2.20313 8.63227V8.62919L2.19275 8.62688C2.19983 8.62426 2.20677 8.62117 2.21352 8.61763L2.23568 8.60529L2.25715 8.59681C2.25715 8.59681 5.86559 6.90387 9.53359 5.18473C11.37 4.32361 13.2203 3.45633 14.6433 2.78717C16.0663 2.12187 17.1182 1.63388 17.1777 1.60767C17.2345 1.583 17.2075 1.583 17.2484 1.583V1.58223Z" fill="#CCCCCC"/>
</svg>
