<svg width="45" height="45" viewBox="0 0 45 45" fill="none" xmlns="http://www.w3.org/2000/svg">
<rect x="0.5" y="0.5" width="44" height="44" rx="22" fill="#FCFCFD"/>
<path d="M10 15.7782V18.5564H35V15.7782C35 15.0414 34.7073 14.3347 34.1864 13.8137C33.6655 13.2927 32.9589 13 32.2222 13H12.7778C12.0411 13 11.3345 13.2927 10.8136 13.8137C10.2927 14.3347 10 15.0414 10 15.7782V15.7782Z" fill="#0099B5"/>
<path d="M35 28.2803V25.5021H10V28.2803C10 29.0171 10.2927 29.7238 10.8136 30.2448C11.3345 30.7658 12.0411 31.0585 12.7778 31.0585H32.2222C32.9589 31.0585 33.6655 30.7658 34.1864 30.2448C34.7073 29.7238 35 29.0171 35 28.2803Z" fill="#1EB53A"/>
<path d="M10 18.5568H35V19.5986H10V18.5568ZM10 24.4605H35V25.5023H10V24.4605Z" fill="#CE1126"/>
<path d="M10 22.0293V24.4602H35V19.5984H10V22.0293Z" fill="white"/>
<path d="M12.9167 15.8898C12.9168 15.3777 13.0981 14.8822 13.4286 14.4912C13.7591 14.1001 14.2174 13.8387 14.7223 13.7534C14.4115 13.7006 14.0929 13.7163 13.7889 13.7993C13.4848 13.8824 13.2025 14.0308 12.9617 14.2342C12.7208 14.4377 12.5273 14.6912 12.3945 14.9771C12.2618 15.2631 12.193 15.5745 12.193 15.8898C12.193 16.2051 12.2618 16.5165 12.3945 16.8025C12.5273 17.0884 12.7208 17.3419 12.9617 17.5454C13.2025 17.7488 13.4848 17.8972 13.7889 17.9802C14.0929 18.0633 14.4115 18.079 14.7223 18.0262C14.2174 17.9409 13.7591 17.6795 13.4286 17.2884C13.0981 16.8974 12.9168 16.4019 12.9167 15.8898ZM16.1688 17.4893L16.0716 17.19L15.9743 17.4893H15.6591L15.9139 17.6748L15.8167 17.9741L16.0716 17.7887L16.3257 17.9741L16.2285 17.6748L16.4834 17.4893H16.1688ZM18.0452 17.4893L17.9479 17.19L17.8507 17.4893H17.5361L17.791 17.6748L17.6938 17.9741L17.9479 17.7887L18.2028 17.9741L18.1056 17.6748L18.3604 17.4893H18.0452ZM17.9479 15.4564L17.8507 15.7557H17.5361L17.791 15.9412L17.6938 16.2405L17.9479 16.0551L18.2028 16.2405L18.1056 15.9412L18.3604 15.7557H18.0452L17.9479 15.4564ZM19.9223 17.4893L19.825 17.19L19.7278 17.4893H19.4132L19.6674 17.6748L19.5702 17.9741L19.825 17.7887L20.0799 17.9741L19.9827 17.6748L20.2368 17.4893H19.9223ZM19.825 15.4564L19.7278 15.7557H19.4132L19.6674 15.9412L19.5702 16.2405L19.825 16.0551L20.0799 16.2405L19.9827 15.9412L20.2368 15.7557H19.9223L19.825 15.4564ZM19.825 13.7228L19.7278 14.0221H19.4132L19.6674 14.2076L19.5702 14.5069L19.825 14.3215L20.0799 14.5069L19.9827 14.2076L20.2368 14.0221H19.9223L19.825 13.7228ZM21.7993 17.4893L21.7021 17.19L21.6049 17.4893H21.2896L21.5445 17.6748L21.4473 17.9741L21.7021 17.7887L21.9563 17.9741L21.8591 17.6748L22.1139 17.4893H21.7993ZM21.7021 15.4564L21.6049 15.7557H21.2896L21.5445 15.9412L21.4473 16.2405L21.7021 16.0551L21.9563 16.2405L21.8591 15.9412L22.1139 15.7557H21.7993L21.7021 15.4564ZM21.7021 13.7228L21.6049 14.0221H21.2896L21.5445 14.2076L21.4473 14.5069L21.7021 14.3215L21.9563 14.5069L21.8591 14.2076L22.1139 14.0221H21.7993L21.7021 13.7228ZM23.6757 17.4893L23.5785 17.19L23.4813 17.4893H23.1667L23.4216 17.6748L23.3243 17.9741L23.5785 17.7887L23.8334 17.9741L23.7361 17.6748L23.991 17.4893H23.6757ZM23.5785 15.4564L23.4813 15.7557H23.1667L23.4216 15.9412L23.3243 16.2405L23.5785 16.0551L23.8334 16.2405L23.7361 15.9412L23.991 15.7557H23.6757L23.5785 15.4564ZM23.5785 13.7228L23.4813 14.0221H23.1667L23.4216 14.2076L23.3243 14.5069L23.5785 14.3215L23.8334 14.5069L23.7361 14.2076L23.991 14.0221H23.6757L23.5785 13.7228Z" fill="white"/>
<rect x="0.5" y="0.5" width="44" height="44" rx="22" stroke="#CCCCCC"/>
</svg>
