<svg width="19" height="18" viewBox="0 0 19 18" fill="none" xmlns="http://www.w3.org/2000/svg">
<path d="M16.0646 2.61905C15.2354 1.78558 14.2476 1.12475 13.159 0.675098C12.0703 0.225444 10.9026 -0.00403209 9.72392 5.36125e-05C4.78523 5.36125e-05 0.760106 4.00504 0.760106 8.91903C0.760106 10.494 1.17619 12.024 1.95408 13.374L0.687744 18L5.43649 16.758C6.74805 17.469 8.22242 17.847 9.72392 17.847C14.6626 17.847 18.6877 13.842 18.6877 8.92803C18.6877 6.54303 17.7561 4.30204 16.0646 2.61905ZM9.72392 16.335C8.38523 16.335 7.07367 15.975 5.92493 15.3L5.65357 15.138L2.83146 15.876L3.58222 13.14L3.40131 12.861C2.65756 11.6793 2.26264 10.3133 2.26161 8.91903C2.26161 4.83304 5.60835 1.50305 9.71488 1.50305C11.7048 1.50305 13.5772 2.27705 14.9792 3.68104C15.6734 4.36861 16.2236 5.18643 16.5977 6.08712C16.9719 6.9878 17.1627 7.95343 17.1591 8.92803C17.1772 13.014 13.8305 16.335 9.72392 16.335ZM13.8124 10.791C13.5862 10.683 12.4827 10.143 12.2837 10.062C12.0757 9.99002 11.931 9.95402 11.7772 10.17C11.6234 10.395 11.1983 10.899 11.0717 11.043C10.945 11.196 10.8094 11.214 10.5832 11.097C10.3571 10.989 9.63347 10.746 8.78322 9.99002C8.11387 9.39603 7.67066 8.66703 7.53498 8.44203C7.40835 8.21703 7.51689 8.10003 7.63448 7.98303C7.73397 7.88403 7.86061 7.72203 7.96915 7.59603C8.07769 7.47003 8.12292 7.37103 8.19528 7.22703C8.26764 7.07403 8.23146 6.94803 8.17719 6.84003C8.12292 6.73203 7.67066 5.63404 7.48975 5.18404C7.30885 4.75204 7.1189 4.80604 6.98322 4.79704H6.54905C6.39528 4.79704 6.16011 4.85104 5.95206 5.07604C5.75307 5.30104 5.17418 5.84104 5.17418 6.93903C5.17418 8.03703 5.9792 9.09903 6.08774 9.24303C6.19629 9.39603 7.67066 11.646 9.91387 12.609C10.4475 12.843 10.8636 12.978 11.1893 13.077C11.7229 13.248 12.2114 13.221 12.6003 13.167C13.0345 13.104 13.93 12.627 14.1109 12.105C14.3008 11.583 14.3008 11.142 14.2375 11.043C14.1742 10.944 14.0385 10.899 13.8124 10.791Z" fill="#CCCCCC"/>
</svg>
