<svg width="111" height="82" viewBox="0 0 111 82" fill="none" xmlns="http://www.w3.org/2000/svg">
<path d="M81.9201 10.6514V12.7975L69.9549 24.6527H68.7122L57.0386 13.0864V10.5654L67.7021 0H71.1698L81.9201 10.6514Z" fill="#FED30D"/>
<path d="M67.5945 25.8839V26.9914L55.5217 38.9566H54.4699L42.5186 27.1152V26.1006L54.5393 14.1938H55.7959L67.5945 25.8839Z" fill="#5A5A55"/>
<path d="M24.531 40.1497V41.5804L13.0517 52.9575H10.6427L0 42.4127V38.8083L10.3754 28.5215H12.7948L24.531 40.1497Z" fill="#5A5A55"/>
<path d="M38.8567 25.8285V27.3865L27.1796 38.9562H25.6939L14.0029 27.3728V24.9274L24.6942 14.3311H27.2525L38.8567 25.8285Z" fill="#5A5A55"/>
<path d="M53.3766 10.6477V13.0036L41.5051 24.7625H40.1444L28.325 13.0518V10.7337L39.1204 0.0375977H42.6679L53.3766 10.6477Z" fill="#5A5A55"/>
<path d="M53.0677 68.4207V69.6761L41.5295 81.1082H39.0614L28.4951 70.6459V68.0734L39.8945 56.7788H41.3177L53.0677 68.4207Z" fill="#5A5A55"/>
<path d="M38.8566 54.3438V55.4685L27.176 67.0416H24.8573L14.2805 56.5622V54.079L25.8813 42.585H26.9886L38.8566 54.3438Z" fill="#5A5A55"/>
<path d="M53.1788 40.0193V41.2781L41.1997 53.147H40.016L28.1931 41.4328V40.2944L40.2069 28.3911H41.4427L53.1788 40.0193Z" fill="#5A5A55"/>
<path d="M67.3899 54.0996V55.4857L55.5358 67.2308H54.2272L42.5188 55.6301V54.1787L54.2202 42.585H55.7684L67.3899 54.0996Z" fill="#5A5A55"/>
<path d="M81.7674 39.9261V41.2399L69.8612 53.0366H68.681L56.8442 41.3087V39.9846L68.6567 28.2808H70.014L81.7674 39.9261Z" fill="#5A5A55"/>
<path d="M96.055 54.0826V56.5623L85.3567 67.1587H82.9339L71.0554 55.3895V54.1961L83.038 42.3237H84.187L96.055 54.0826Z" fill="#FED30D"/>
<path d="M96.0932 24.6941V27.0465L84.3363 38.6954H82.8888L71.2603 27.1772V25.7018L82.979 14.0908H85.3915L96.0932 24.6941Z" fill="#FED30D"/>
<path d="M110.325 38.7951V42.42L99.7171 52.9305H97.2561L85.4297 41.2129V39.9541L97.3637 28.1299H99.5609L110.325 38.7951Z" fill="#FED30D"/>
<path d="M81.6946 68.2731V70.7872L71.0033 81.3767H67.8653L56.7297 70.3435V68.39L68.563 56.6655H69.9793L81.6946 68.2731Z" fill="#FED30D"/>
<path d="M82.7533 29.5366H62.4503C61.9273 27.4121 60.8475 25.462 59.3201 23.8834C57.7927 22.3048 55.8718 21.1537 53.7515 20.5464H88.7446" fill="white"/>
<path d="M62.294 45.4979V46.4609C62.2967 48.2023 61.9525 49.9272 61.2812 51.5366C60.6099 53.146 59.6246 54.6083 58.3817 55.8396C57.1389 57.071 55.6631 58.0473 54.0387 58.7124C52.4144 59.3776 50.6736 59.7186 48.916 59.7159H19.5774V35.5068H28.2554V50.7222H49.5442C50.5186 50.7213 51.4527 50.3371 52.1413 49.6542C52.83 48.9712 53.2168 48.0454 53.2168 47.08V45.4979H62.294Z" fill="#FED30D"/>
<path d="M88.4253 47.6754C88.4253 49.2562 88.1111 50.8215 87.5005 52.2819C86.89 53.7424 85.9951 55.0694 84.8669 56.1872C83.7388 57.3049 82.3994 58.1916 80.9254 58.7965C79.4514 59.4015 77.8716 59.7128 76.2761 59.7128H55.258C57.3776 59.1037 59.2976 57.9516 60.8242 56.3725C62.3509 54.7935 63.4302 52.8435 63.9534 50.7191H75.9013C76.7169 50.7191 77.4992 50.3981 78.0759 49.8266C78.6527 49.2552 78.9767 48.4801 78.9767 47.672C78.9767 46.8638 78.6527 46.0887 78.0759 45.5173C77.4992 44.9458 76.7169 44.6248 75.9013 44.6248H53.0955C49.8733 44.6248 46.7831 43.3565 44.5047 41.0991C42.2263 38.8416 40.9463 35.7798 40.9463 32.5873C40.9463 32.4394 40.9463 32.2881 40.9463 32.1402C40.9463 31.9923 40.9463 31.9132 40.9671 31.7963C40.9879 31.6793 40.9671 31.583 40.988 31.4799C40.988 31.4386 40.988 31.4008 40.988 31.3629C40.988 31.2632 41.0088 31.1635 41.0192 31.0672C41.0296 30.9709 41.0435 30.8814 41.0574 30.7886H50.9781C50.6444 31.2433 50.4442 31.7805 50.3996 32.341C50.355 32.9014 50.4678 33.4631 50.7254 33.964C50.983 34.4649 51.3755 34.8854 51.8593 35.179C52.3431 35.4726 52.8995 35.6279 53.4669 35.6276H76.2727C79.4948 35.6276 82.585 36.8959 84.8634 39.1533C87.1419 41.4108 88.4219 44.4725 88.4219 47.6651L88.4253 47.6754Z" fill="white"/>
<path d="M62.294 33.8013V34.7127H53.2307V33.1788C53.2297 32.2137 52.8426 31.2884 52.1542 30.6056C51.4658 29.9229 50.5322 29.5385 49.5581 29.5366H19.5774V20.5464H48.916C49.3811 20.5464 49.8428 20.5705 50.3044 20.6152C53.5968 20.9502 56.6464 22.4846 58.8616 24.921C61.0769 27.3574 62.3001 30.5221 62.294 33.8013Z" fill="#FED30D"/>
</svg>
